<?xml version="1.0" encoding="UTF-8" standalone="no"?>
<!DOCTYPE svg PUBLIC "-//W3C//DTD SVG 1.1//EN" "http://www.w3.org/Graphics/SVG/1.1/DTD/svg11.dtd">
<svg width="100%" height="100%" viewBox="0 0 512 512" version="1.1" xmlns="http://www.w3.org/2000/svg" xmlns:xlink="http://www.w3.org/1999/xlink" xml:space="preserve" xmlns:serif="http://www.serif.com/" style="fill-rule:evenodd;clip-rule:evenodd;stroke-linejoin:round;stroke-miterlimit:2;">
    <g id="_18-CSS">
        <path d="M296,168L8,168C3.611,168 0,164.389 0,160L0,32C-0,27.611 3.611,24 8,24L296,24C300.389,24 304,27.611 304,32L304,160C304,164.389 300.389,168 296,168ZM16,152L288,152L288,40L16,40L16,152Z" style="fill:white;fill-rule:nonzero;"/>
        <path d="M440,112L344,112C339.611,112 336,108.389 336,104L336,8L352,8L352,96L440,96L440,112Z" style="fill:white;fill-rule:nonzero;"/>
        <path d="M448,128L432,128L432,107.312L340.688,16L80,16L80,32L64,32L64,8C64,3.611 67.611,0 72,0L344,0C346.121,0 348.157,0.844 349.656,2.344L445.656,98.344C447.156,99.843 448,101.879 448,104L448,128Z" style="fill:white;fill-rule:nonzero;"/>
        <rect x="64" y="184" width="16" height="16" style="fill:white;fill-rule:nonzero;"/>
        <rect x="64" y="216" width="16" height="232" style="fill:white;fill-rule:nonzero;"/>
        <path d="M440,512L72,512C67.611,512 64,508.389 64,504L64,464L80,464L80,496L432,496L432,176L448,176L448,504C448,508.389 444.389,512 440,512Z" style="fill:white;fill-rule:nonzero;"/>
        <rect x="432" y="144" width="16" height="16" style="fill:white;fill-rule:nonzero;"/>
        <path d="M200,416L192,416C170.067,415.974 152.026,397.933 152,376L152,352C151.656,350.952 149.952,349.976 148.72,349.256C144.919,347.216 141.418,344.658 138.32,341.656C135.218,338.553 135.218,333.447 138.32,330.344C141.418,327.342 144.919,324.784 148.72,322.744C149.881,322.135 150.979,321.414 152,320.592L152,296C152.026,274.067 170.067,256.026 192,256L200,256L200,272L192,272C178.834,272 168,282.834 168,296L168,320C168.022,326.87 164.002,333.146 157.752,336C164.002,338.854 168.022,345.13 168,352L168,376C168,389.166 178.834,400 192,400L200,400L200,416Z" style="fill:white;fill-rule:nonzero;"/>
        <path d="M320,416L312,416L312,400L320,400C333.166,400 344,389.166 344,376L344,352C343.978,345.13 347.998,338.854 354.248,336C347.998,333.146 343.978,326.87 344,320L344,296C344,282.834 333.166,272 320,272L312,272L312,256L320,256C341.933,256.026 359.974,274.067 360,296L360,320C360.344,321.048 362.048,322.024 363.28,322.744C367.081,324.784 370.582,327.342 373.68,330.344C376.782,333.447 376.782,338.553 373.68,341.656C370.582,344.658 367.081,347.216 363.28,349.256C362.111,349.864 361.004,350.585 359.976,351.408L360,376C359.974,397.933 341.933,415.974 320,416Z" style="fill:white;fill-rule:nonzero;"/>
        <path d="M216,136C190.688,136 184,120.304 184,112L192,112L200,111.768C200.096,113.144 201.28,120 216,120C220.389,120 224,116.389 224,112C224,107.611 220.389,104 216,104L208,104C194.834,104 184,93.166 184,80C184,66.834 194.834,56 208,56C233.312,56 240,71.696 240,80L224,80C223.912,78.856 222.728,72 208,72C203.611,72 200,75.611 200,80C200,84.389 203.611,88 208,88L216,88C229.166,88 240,98.834 240,112C240,125.166 229.166,136 216,136Z" style="fill:white;fill-rule:nonzero;"/>
        <path d="M144,136C118.688,136 112,120.304 112,112L120,112L128,111.768C128.096,113.144 129.28,120 144,120C148.389,120 152,116.389 152,112C152,107.611 148.389,104 144,104L136,104C122.834,104 112,93.166 112,80C112,66.834 122.834,56 136,56C161.312,56 168,71.696 168,80L152,80C151.912,78.856 150.728,72 136,72C131.611,72 128,75.611 128,80C128,84.389 131.611,88 136,88L144,88C157.166,88 168,98.834 168,112C168,125.166 157.166,136 144,136Z" style="fill:white;fill-rule:nonzero;"/>
        <path d="M96,136L88,136C66.057,136 48,117.943 48,96C48,74.057 66.057,56 88,56L96,56L96,72L88,72C74.834,72 64,82.834 64,96C64,109.166 74.834,120 88,120L96,120L96,136Z" style="fill:white;fill-rule:nonzero;"/>
    </g>
</svg>
