<?xml version="1.0" encoding="UTF-8" standalone="no"?>
<!DOCTYPE svg PUBLIC "-//W3C//DTD SVG 1.1//EN" "http://www.w3.org/Graphics/SVG/1.1/DTD/svg11.dtd">
<svg width="100%" height="100%" viewBox="0 0 490 490" version="1.1" xmlns="http://www.w3.org/2000/svg" xmlns:xlink="http://www.w3.org/1999/xlink" xml:space="preserve" xmlns:serif="http://www.serif.com/" style="fill-rule:evenodd;clip-rule:evenodd;stroke-linejoin:round;stroke-miterlimit:2;">
    <path d="M245.562,490.001C229.078,489.954 213.281,483.396 201.615,471.757L18.772,288.91C-5.461,264.678 -5.461,225.386 18.772,201.153L201.615,18.173C225.851,-6.059 265.14,-6.059 289.376,18.173L472.352,201.017C496.584,225.253 496.584,264.545 472.352,288.777L289.508,471.757C277.839,483.396 262.042,489.954 245.562,490.001ZM245.562,21.236C234.723,21.259 224.334,25.567 216.663,33.221L33.82,216.069C26.165,223.712 21.866,234.082 21.866,244.897C21.866,255.716 26.165,266.086 33.82,273.729L216.663,456.705C224.306,464.36 234.681,468.66 245.495,468.66C256.31,468.66 266.685,464.36 274.328,456.705L457.304,273.862C464.955,266.219 469.254,255.849 469.254,245.034C469.254,234.215 464.955,223.845 457.304,216.201L274.46,33.221C266.79,25.567 256.4,21.259 245.562,21.236Z" style="fill:white;fill-rule:nonzero;"/>
    <path d="M245.562,181.041C216.141,181.041 192.295,157.195 192.295,127.774C192.295,98.357 216.141,74.507 245.562,74.507C274.979,74.507 298.829,98.357 298.829,127.774C298.829,157.195 274.979,181.041 245.562,181.041ZM245.562,95.813C227.911,95.813 213.601,110.124 213.601,127.774C213.601,145.424 227.911,159.735 245.562,159.735C263.212,159.735 277.523,145.424 277.523,127.774C277.523,110.124 263.212,95.813 245.562,95.813Z" style="fill:white;fill-rule:nonzero;"/>
    <path d="M245.562,394.118C216.141,394.118 192.295,370.268 192.295,340.847C192.295,311.429 216.141,287.579 245.562,287.579C274.979,287.579 298.829,311.429 298.829,340.847C298.829,370.268 274.979,394.118 245.562,394.118ZM245.562,308.885C227.911,308.885 213.601,323.196 213.601,340.847C213.601,358.501 227.911,372.808 245.562,372.808C263.212,372.808 277.523,358.501 277.523,340.847C277.523,323.196 263.212,308.885 245.562,308.885Z" style="fill:white;fill-rule:nonzero;"/>
    <path d="M352.1,287.579C322.679,287.579 298.829,263.73 298.829,234.312C298.829,204.891 322.679,181.041 352.1,181.041C381.517,181.041 405.367,204.891 405.367,234.312C405.367,263.73 381.517,287.579 352.1,287.579ZM352.1,202.351C334.446,202.351 320.139,216.658 320.139,234.312C320.139,251.963 334.446,266.273 352.1,266.273C369.75,266.273 384.061,251.963 384.061,234.312C384.061,216.658 369.75,202.351 352.1,202.351Z" style="fill:white;fill-rule:nonzero;"/>
    <path d="M168.839,66.013L183.906,50.95L223.023,90.066L207.955,105.13L168.839,66.013Z" style="fill:white;fill-rule:nonzero;"/>
    <path d="M268.093,165.377L283.161,150.309L329.436,196.585L314.369,211.652L268.093,165.377Z" style="fill:white;fill-rule:nonzero;"/>
    <rect x="234.907" y="170.39" width="21.31" height="127.844" style="fill:white;fill-rule:nonzero;"/>
</svg>
