<?xml version="1.0" encoding="UTF-8" standalone="no"?>
<!DOCTYPE svg PUBLIC "-//W3C//DTD SVG 1.1//EN" "http://www.w3.org/Graphics/SVG/1.1/DTD/svg11.dtd">
<svg width="100%" height="100%" viewBox="0 0 512 512" version="1.1" xmlns="http://www.w3.org/2000/svg" xmlns:xlink="http://www.w3.org/1999/xlink" xml:space="preserve" xmlns:serif="http://www.serif.com/" style="fill-rule:evenodd;clip-rule:evenodd;stroke-linejoin:round;stroke-miterlimit:2;">
    <g id="_16-HTML">
        <path d="M296,168L8,168C3.611,168 0,164.389 0,160L0,32C-0,27.611 3.611,24 8,24L296,24C300.389,24 304,27.611 304,32L304,160C304,164.389 300.389,168 296,168ZM16,152L288,152L288,40L16,40L16,152Z" style="fill:white;fill-rule:nonzero;"/>
        <path d="M440,112L344,112C339.611,112 336,108.389 336,104L336,8L352,8L352,96L440,96L440,112Z" style="fill:white;fill-rule:nonzero;"/>
        <path d="M448,128L432,128L432,107.312L340.688,16L80,16L80,32L64,32L64,8C64,3.611 67.611,0 72,0L344,0C346.121,0 348.157,0.844 349.656,2.344L445.656,98.344C447.156,99.843 448,101.879 448,104L448,128Z" style="fill:white;fill-rule:nonzero;"/>
        <rect x="64" y="184" width="16" height="16" style="fill:white;fill-rule:nonzero;"/>
        <rect x="64" y="216" width="16" height="232" style="fill:white;fill-rule:nonzero;"/>
        <path d="M440,512L72,512C67.611,512 64,508.389 64,504L64,464L80,464L80,496L432,496L432,176L448,176L448,504C448,508.389 444.389,512 440,512Z" style="fill:white;fill-rule:nonzero;"/>
        <rect x="432" y="144" width="16" height="16" style="fill:white;fill-rule:nonzero;"/>
        <path d="M272,136L240,136C235.611,136 232,132.389 232,128L232,56L248,56L248,120L272,120L272,136Z" style="fill:white;fill-rule:nonzero;"/>
        <rect x="32" y="56" width="16" height="80" style="fill:white;fill-rule:nonzero;"/>
        <rect x="72" y="56" width="16" height="80" style="fill:white;fill-rule:nonzero;"/>
        <rect x="40" y="88" width="40" height="16" style="fill:white;fill-rule:nonzero;"/>
        <rect x="96" y="56" width="48" height="16" style="fill:white;fill-rule:nonzero;"/>
        <rect x="112" y="64" width="16" height="72" style="fill:white;fill-rule:nonzero;"/>
        <path d="M216,136L200,136L200,102.976L191.352,123.152C190.093,126.086 187.193,127.998 184,127.998C180.807,127.998 177.907,126.086 176.648,123.152L168,102.976L168,136L152,136L152,64C152.001,59.612 155.612,56.002 160,56.002C163.193,56.002 166.093,57.914 167.352,60.848L184,99.688L200.648,60.848C201.907,57.914 204.807,56.002 208,56.002C212.388,56.002 215.999,59.612 216,64L216,136Z" style="fill:white;fill-rule:nonzero;"/>
        <path d="M200,408L168,408C165.717,407.998 163.54,407.019 162.024,405.312L98.024,333.312C95.346,330.296 95.346,325.704 98.024,322.688L162.024,250.688C163.54,248.981 165.717,248.002 168,248L200,248C200,248 200.001,248 200.001,248C204.39,248 208.001,251.611 208.001,256C208.001,257.961 207.28,259.855 205.976,261.32L146.704,328L205.976,394.688C207.276,396.152 207.994,398.043 207.994,400C207.994,404.386 204.386,407.997 200,408ZM171.592,392L182.184,392L130.024,333.312C127.346,330.296 127.346,325.704 130.024,322.688L182.184,264L171.592,264L114.704,328L171.592,392Z" style="fill:white;fill-rule:nonzero;"/>
        <path d="M344,408L312,408C307.614,407.997 304.006,404.386 304.006,400C304.006,398.043 304.724,396.152 306.024,394.688L365.296,328L306.024,261.32C304.72,259.855 303.999,257.961 303.999,256C303.999,251.611 307.61,248 311.999,248C311.999,248 312,248 312,248L344,248C346.282,248 348.458,248.976 349.976,250.68L413.976,322.68C416.654,325.696 416.654,330.288 413.976,333.304L349.976,405.304C348.461,407.014 346.284,407.996 344,408ZM329.816,392L340.408,392L397.296,328L340.408,264L329.816,264L381.976,322.688C384.654,325.704 384.654,330.296 381.976,333.312L329.816,392Z" style="fill:white;fill-rule:nonzero;"/>
        <path d="M248,408L224,408C223.998,408 223.997,408 223.995,408C219.607,408 215.995,404.389 215.995,400C215.995,399.275 216.094,398.554 216.288,397.856L256.288,253.856C257.248,250.404 260.417,247.998 264,248L288,248C288.002,248 288.003,248 288.005,248C292.393,248 296.005,251.611 296.005,256C296.005,256.725 295.906,257.446 295.712,258.144L255.712,402.144C254.752,405.596 251.583,408.002 248,408ZM234.52,392L241.92,392L277.48,264L270.08,264L234.52,392Z" style="fill:white;fill-rule:nonzero;"/>
    </g>
</svg>
