<?xml version="1.0" encoding="UTF-8" standalone="no"?>
<!DOCTYPE svg PUBLIC "-//W3C//DTD SVG 1.1//EN" "http://www.w3.org/Graphics/SVG/1.1/DTD/svg11.dtd">
<svg width="100%" height="100%" viewBox="0 0 512 512" version="1.1" xmlns="http://www.w3.org/2000/svg" xmlns:xlink="http://www.w3.org/1999/xlink" xml:space="preserve" xmlns:serif="http://www.serif.com/" style="fill-rule:evenodd;clip-rule:evenodd;stroke-linejoin:round;stroke-miterlimit:2;">
    <g id="_17-JS">
        <path d="M296,168L8,168C3.611,168 0,164.389 0,160L0,32C-0,27.611 3.611,24 8,24L296,24C300.389,24 304,27.611 304,32L304,160C304,164.389 300.389,168 296,168ZM16,152L288,152L288,40L16,40L16,152Z" style="fill:white;fill-rule:nonzero;"/>
        <path d="M440,112L344,112C339.611,112 336,108.389 336,104L336,8L352,8L352,96L440,96L440,112Z" style="fill:white;fill-rule:nonzero;"/>
        <path d="M448,128L432,128L432,107.312L340.688,16L80,16L80,32L64,32L64,8C64,3.611 67.611,0 72,0L344,0C346.121,0 348.157,0.844 349.656,2.344L445.656,98.344C447.156,99.843 448,101.879 448,104L448,128Z" style="fill:white;fill-rule:nonzero;"/>
        <rect x="64" y="184" width="16" height="16" style="fill:white;fill-rule:nonzero;"/>
        <rect x="64" y="216" width="16" height="232" style="fill:white;fill-rule:nonzero;"/>
        <path d="M440,512L72,512C67.611,512 64,508.389 64,504L64,464L80,464L80,496L432,496L432,176L448,176L448,504C448,508.389 444.389,512 440,512Z" style="fill:white;fill-rule:nonzero;"/>
        <rect x="432" y="144" width="16" height="16" style="fill:white;fill-rule:nonzero;"/>
        <path d="M176,136C150.688,136 144,120.304 144,112L152,112L160,111.768C160.096,113.144 161.28,120 176,120C180.389,120 184,116.389 184,112C184,107.611 180.389,104 176,104L168,104C154.834,104 144,93.166 144,80C144,66.834 154.834,56 168,56C193.312,56 200,71.696 200,80L184,80C183.912,78.856 182.728,72 168,72C163.611,72 160,75.611 160,80C160,84.389 163.611,88 168,88L176,88C189.166,88 200,98.834 200,112C200,125.166 189.166,136 176,136Z" style="fill:white;fill-rule:nonzero;"/>
        <path d="M112,136C98.834,136 88,125.166 88,112L88,104L104,104L104,112C104,116.389 107.611,120 112,120C116.389,120 120,116.389 120,112L120,56L136,56L136,112C136,125.166 125.166,136 112,136Z" style="fill:white;fill-rule:nonzero;"/>
        <path d="M200,416L192,416C170.067,415.974 152.026,397.933 152,376L152,352C151.656,350.952 149.952,349.976 148.72,349.256C144.919,347.216 141.418,344.658 138.32,341.656C135.218,338.553 135.218,333.447 138.32,330.344C141.418,327.342 144.919,324.784 148.72,322.744C149.881,322.135 150.979,321.414 152,320.592L152,296C152.026,274.067 170.067,256.026 192,256L200,256L200,272L192,272C178.834,272 168,282.834 168,296L168,320C168.022,326.87 164.002,333.146 157.752,336C164.002,338.854 168.022,345.13 168,352L168,376C168,389.166 178.834,400 192,400L200,400L200,416Z" style="fill:white;fill-rule:nonzero;"/>
        <path d="M320,416L312,416L312,400L320,400C333.166,400 344,389.166 344,376L344,352C343.978,345.13 347.998,338.854 354.248,336C347.998,333.146 343.978,326.87 344,320L344,296C344,282.834 333.166,272 320,272L312,272L312,256L320,256C341.933,256.026 359.974,274.067 360,296L360,320C360.344,321.048 362.048,322.024 363.28,322.744C367.081,324.784 370.582,327.342 373.68,330.344C376.782,333.447 376.782,338.553 373.68,341.656C370.582,344.658 367.081,347.216 363.28,349.256C362.111,349.864 361.004,350.585 359.976,351.408L360,376C359.974,397.933 341.933,415.974 320,416Z" style="fill:white;fill-rule:nonzero;"/>
        <path d="M256,312C247.223,312 240,304.777 240,296C240,287.223 247.223,280 256,280C264.777,280 272,287.223 272,296C272,304.777 264.777,312 256,312Z" style="fill:white;fill-rule:nonzero;"/>
        <path d="M240,392L224,392C223.999,392 223.999,392 223.998,392C219.609,392 215.998,388.389 215.998,384C215.998,383.259 216.101,382.521 216.304,381.808L232.304,325.808C233.281,322.38 236.436,319.999 240,320L264,320C268.388,320 271.999,323.612 271.999,328C271.999,329.084 271.779,330.156 271.352,331.152L247.352,387.152C246.094,390.087 243.193,392 240,392ZM234.608,376L234.728,376L251.864,336L246.032,336L234.608,376Z" style="fill:white;fill-rule:nonzero;"/>
    </g>
</svg>
