<?xml version="1.0" encoding="UTF-8" standalone="no"?>
<!DOCTYPE svg PUBLIC "-//W3C//DTD SVG 1.1//EN" "http://www.w3.org/Graphics/SVG/1.1/DTD/svg11.dtd">
<svg width="100%" height="100%" viewBox="0 0 512 511" version="1.1" xmlns="http://www.w3.org/2000/svg" xmlns:xlink="http://www.w3.org/1999/xlink" xml:space="preserve" xmlns:serif="http://www.serif.com/" style="fill-rule:evenodd;clip-rule:evenodd;stroke-linejoin:round;stroke-miterlimit:2;">
    <g transform="matrix(1,0,0,1,0,4)">
        <path d="M509.313,214.926L422.234,64.047C420.164,60.457 415.574,59.23 411.988,61.301C408.402,63.371 407.172,67.957 409.242,71.543L496.316,222.418C497.234,224.016 497.234,225.992 496.316,227.586L419.336,360.98C416.75,354.809 411.805,349.859 405.633,347.273L472.605,231.215C474.809,227.387 474.809,222.625 472.602,218.785L369.695,40.461C367.484,36.617 363.355,34.23 358.914,34.23L153.09,34.23C148.648,34.23 144.516,36.617 142.313,40.453L39.395,218.797C37.191,222.625 37.191,227.387 39.398,231.223L82.535,305.973C84.605,309.562 89.191,310.793 92.777,308.723C96.367,306.652 97.598,302.066 95.527,298.477L53.129,225.004L154.566,49.23L357.438,49.23L458.871,225.004L389.457,345.305L122.547,345.305L112.203,327.375C110.129,323.789 105.543,322.559 101.957,324.629C98.367,326.699 97.137,331.285 99.207,334.875L106.363,347.273C100.191,349.863 95.246,354.809 92.66,360.98L15.68,227.586C14.762,225.992 14.762,224.016 15.68,222.422L133.613,18.078C134.531,16.488 136.242,15.5 138.078,15.5L373.922,15.5C375.758,15.5 377.469,16.488 378.387,18.078L394.199,45.48C396.27,49.07 400.859,50.293 404.445,48.227C408.031,46.156 409.262,41.57 407.191,37.984L391.379,10.586C387.793,4.363 381.105,0.5 373.922,0.5L138.074,0.5C130.895,0.5 124.203,4.363 120.621,10.582L2.688,214.926C-0.895,221.145 -0.895,228.863 2.688,235.082L90.691,387.582L90.691,478.918C90.691,492.977 102.129,504.414 116.191,504.414L322,504.414C326.145,504.414 329.5,501.059 329.5,496.914C329.5,492.773 326.145,489.414 322,489.414L116.191,489.414C110.402,489.414 105.695,484.707 105.695,478.918L105.695,370.801C105.695,365.012 110.402,360.305 116.191,360.305L118.148,360.305C118.176,360.305 118.199,360.309 118.227,360.309C118.25,360.309 118.277,360.305 118.301,360.305L393.699,360.305C393.723,360.305 393.75,360.309 393.777,360.309C393.801,360.309 393.824,360.305 393.852,360.305L395.809,360.305C401.598,360.305 406.309,365.012 406.309,370.801L406.309,385.336C406.305,385.398 406.309,385.461 406.309,385.523L406.309,478.918C406.309,484.707 401.598,489.414 395.809,489.414L355,489.414C350.859,489.414 347.5,492.773 347.5,496.914C347.5,501.059 350.859,504.414 355,504.414L395.809,504.414C409.867,504.414 421.309,492.977 421.309,478.918L421.309,387.582L509.313,235.082C512.895,228.867 512.895,221.145 509.313,214.926Z" style="fill:white;fill-rule:nonzero;"/>
    </g>
    <g transform="matrix(1,0,0,1,0,4)">
        <path d="M182.555,423.059C185.246,419.262 186.594,414.254 186.594,408.031C186.594,392.172 177.605,384.238 159.629,384.238L137.098,384.238C135.734,384.238 134.598,384.691 133.684,385.605C132.773,386.516 132.32,387.578 132.32,388.793L132.32,462.785C132.32,464.23 133.059,465.367 134.539,466.203C136.02,467.039 137.742,467.453 139.715,467.453C141.766,467.453 143.508,467.039 144.949,466.203C146.391,465.367 147.113,464.23 147.113,462.785L147.113,433.074L156.672,433.074L172.828,464.492C174.039,466.848 175.746,468.023 177.949,468.023C180.148,468.023 182.234,467.211 184.207,465.574C186.18,463.945 187.164,462.18 187.164,460.281C187.164,459.523 186.973,458.914 186.594,458.461L171.688,430.797C176.238,429.43 179.863,426.852 182.555,423.059ZM159.629,421.465L147.113,421.465L147.113,397.215L159.629,397.215C167.746,397.215 171.805,401.277 171.805,409.398C171.805,417.441 167.742,421.465 159.629,421.465Z" style="fill:white;fill-rule:nonzero;"/>
    </g>
    <g transform="matrix(1,0,0,1,0,4)">
        <path d="M230.402,444.23C231.996,444.23 233.285,444.156 234.27,444.004C235.258,443.855 236.336,443.477 237.516,442.875C238.688,442.277 239.563,441.242 240.133,439.777C240.699,438.309 240.984,436.453 240.984,434.195C240.984,428.02 238.691,422.895 234.102,418.816C229.512,414.738 223.992,412.695 217.543,412.695C210.641,412.695 204.762,414.938 199.91,419.414C195.055,423.891 192.625,429.242 192.625,435.465L192.625,445.141C192.625,452.125 195.188,457.762 200.305,462.047C205.426,466.336 212.043,468.477 220.16,468.477C225.852,468.477 230.609,467.438 234.441,465.348C238.27,463.262 240.188,461.156 240.188,459.031C240.188,457.664 239.656,456.242 238.594,454.762C237.531,453.281 236.207,452.539 234.613,452.539C233.777,452.539 231.957,453.262 229.152,454.703C226.344,456.145 223.5,456.867 220.617,456.867C216.598,456.867 213.371,455.859 210.945,453.848C208.52,451.84 207.305,449.203 207.305,445.938L207.305,444.23L230.402,444.23ZM207.305,432.602C207.305,430.121 208.289,428.121 210.262,426.594C212.234,425.07 214.547,424.309 217.203,424.309C220.008,424.309 222.379,425.09 224.313,426.648C226.246,428.207 227.215,430.227 227.215,432.707C227.215,433.844 226.969,434.605 226.477,434.996C225.98,435.387 225.129,435.578 223.914,435.578L207.301,435.578L207.301,432.602L207.305,432.602Z" style="fill:white;fill-rule:nonzero;"/>
    </g>
    <g transform="matrix(1,0,0,1,0,4)">
        <path d="M280.523,465.992C281.773,466.969 283.348,467.453 285.246,467.453C287.293,467.453 289,467 290.367,466.09C291.73,465.18 292.414,464.078 292.414,462.785L292.414,434.895C292.414,428.52 290.402,423.227 286.383,419.016C282.363,414.805 276.219,412.699 267.949,412.699C263.625,412.699 259.512,413.516 255.605,415.145C251.695,416.777 249.746,418.695 249.746,420.895C249.746,422.715 250.199,424.387 251.109,425.902C252.02,427.422 253.234,428.18 254.75,428.18C255.129,428.18 256.535,427.535 258.961,426.246C261.391,424.953 264.309,424.309 267.723,424.309C271.137,424.309 273.656,425.383 275.289,427.527C276.922,429.676 277.734,432.191 277.734,435.082L277.734,436.602L273.07,436.602C264.496,436.602 257.938,437.82 253.387,440.254C248.836,442.691 246.559,446.895 246.559,452.867C246.559,457.957 247.941,461.828 250.711,464.488C253.48,467.148 257.027,468.477 261.352,468.477C267.645,468.477 273.41,465.297 278.645,458.934L278.645,462.461C278.645,463.844 279.27,465.02 280.523,465.992ZM277.734,446.5C277.734,449.094 276.598,451.469 274.32,453.629C272.047,455.789 269.695,456.867 267.266,456.867C265.445,456.867 263.984,456.383 262.887,455.41C261.785,454.438 261.238,452.98 261.238,451.035C261.238,448.301 262.547,446.48 265.16,445.582C267.777,444.68 271.402,444.23 276.027,444.23L277.734,444.23L277.734,446.5Z" style="fill:white;fill-rule:nonzero;"/>
    </g>
    <g transform="matrix(1,0,0,1,0,4)">
        <path d="M338.723,452.199C338.113,452.199 336.711,452.75 334.512,453.852C332.312,454.953 329.922,455.5 327.344,455.5C319.91,455.5 316.191,452.035 316.191,445.105L316.191,436.066C316.191,429.141 319.871,425.676 327.23,425.676C329.809,425.676 332.219,426.188 334.457,427.211C336.691,428.234 338.039,428.746 338.496,428.746C340.086,428.746 341.453,427.949 342.59,426.355C343.727,424.762 344.297,423.168 344.297,421.574C344.297,419.301 342.551,417.25 339.062,415.43C335.574,413.609 331.25,412.695 326.094,412.695C317.898,412.695 311.754,414.844 307.66,419.129C303.562,423.418 301.516,429.051 301.516,436.035L301.516,445.141C301.516,452.199 303.562,457.852 307.66,462.102C311.754,466.352 317.937,468.477 326.207,468.477C331.363,468.477 335.781,467.508 339.461,465.574C343.141,463.641 344.98,461.496 344.98,459.145C344.98,457.547 344.391,455.996 343.215,454.477C342.039,452.961 340.543,452.199 338.723,452.199Z" style="fill:white;fill-rule:nonzero;"/>
    </g>
    <g transform="matrix(1,0,0,1,0,4)">
        <path d="M365.063,391.418C363.582,390.578 361.855,390.16 359.887,390.16C358.066,390.16 356.395,390.59 354.879,391.453C353.359,392.316 352.605,393.387 352.605,394.66L352.605,449.227C352.605,461.379 359.621,467.453 373.652,467.453L378.094,467.453C380.063,467.453 381.602,466.82 382.699,465.551C383.801,464.277 384.348,462.73 384.348,460.906C384.348,459.16 383.797,457.652 382.699,456.383C381.598,455.113 380.063,454.477 378.094,454.477L373.652,454.477C371.301,454.477 369.652,454.043 368.703,453.176C367.754,452.309 367.281,450.828 367.281,448.73L367.281,424.992L380.707,424.992C381.848,424.992 382.758,424.418 383.438,423.266C384.121,422.109 384.461,420.754 384.461,419.188C384.461,417.625 384.121,416.266 383.438,415.113C382.754,413.961 381.844,413.383 380.707,413.383L367.281,413.383L367.281,394.539C367.281,393.297 366.543,392.258 365.063,391.418Z" style="fill:white;fill-rule:nonzero;"/>
    </g>
    <g transform="matrix(1,0,0,1,0,4)">
        <path d="M256,225.973C269.184,225.973 279.906,215.246 279.906,202.059C279.906,188.871 269.184,178.145 256,178.145C242.816,178.145 232.094,188.871 232.094,202.059C232.094,215.246 242.816,225.973 256,225.973ZM256,193.145C260.91,193.145 264.906,197.141 264.906,202.059C264.906,206.973 260.91,210.973 256,210.973C251.09,210.973 247.094,206.973 247.094,202.059C247.094,197.141 251.09,193.145 256,193.145Z" style="fill:white;fill-rule:nonzero;"/>
    </g>
    <g transform="matrix(1,0,0,1,0,4)">
        <path d="M130.367,202.059C130.367,218.57 144.285,233.527 169.555,244.18C172.164,245.277 174.879,246.313 177.672,247.301C177.129,250.211 176.668,253.086 176.316,255.895C172.898,283.113 178.891,302.652 193.184,310.906C197.828,313.59 203.07,314.918 208.777,314.918C220.625,314.918 234.492,309.195 249.242,298.016C251.496,296.305 253.75,294.469 256,292.547C258.25,294.469 260.5,296.305 262.758,298.016C277.508,309.199 291.371,314.918 303.223,314.918C308.93,314.918 314.172,313.59 318.816,310.906C333.109,302.652 339.098,283.113 335.684,255.895C335.332,253.086 334.871,250.211 334.328,247.301C337.121,246.312 339.836,245.277 342.445,244.18C367.715,233.527 381.633,218.57 381.633,202.059C381.633,185.547 367.715,170.59 342.445,159.937C339.836,158.84 337.121,157.805 334.328,156.816C334.871,153.902 335.332,151.031 335.684,148.223C339.098,121 333.109,101.465 318.816,93.211C304.523,84.953 284.613,89.531 262.758,106.102C260.5,107.812 258.246,109.648 256,111.57C253.75,109.648 251.496,107.812 249.242,106.102C227.383,89.531 207.473,84.953 193.18,93.211C178.887,101.465 172.898,121 176.313,148.223C176.664,151.031 177.125,153.902 177.668,156.816C174.879,157.805 172.16,158.84 169.555,159.937C144.285,170.59 130.367,185.547 130.367,202.059ZM200.684,297.918C191.336,292.516 188.039,275.297 192.113,251.703C202.051,254.297 212.766,256.254 223.98,257.543C230.699,266.613 237.75,274.918 244.965,282.23C243.371,283.562 241.773,284.852 240.18,286.062C223.688,298.566 209.293,302.887 200.684,297.918ZM200.734,183.719C198.617,177.969 196.84,172.395 195.387,167.043C200.742,165.629 206.457,164.383 212.492,163.34C210.414,166.629 208.379,169.988 206.402,173.414C204.43,176.836 202.539,180.273 200.734,183.719ZM219.395,180.91C223.453,173.883 227.746,167.16 232.211,160.793C239.789,160.125 247.734,159.766 256,159.766C264.266,159.766 272.215,160.129 279.793,160.793C284.254,167.16 288.551,173.883 292.605,180.91C296.742,188.082 300.406,195.152 303.621,202.059C300.406,208.965 296.742,216.035 292.605,223.207C288.551,230.234 284.254,236.961 279.793,243.324C272.215,243.992 264.266,244.352 256,244.352C247.734,244.352 239.789,243.988 232.211,243.324C227.746,236.961 223.453,230.234 219.395,223.207C215.258,216.035 211.594,208.965 208.379,202.059C211.594,195.152 215.258,188.082 219.395,180.91ZM256,132.047C259.973,136.051 263.906,140.375 267.762,145.008C263.875,144.848 259.953,144.766 256,144.766C252.051,144.766 248.125,144.848 244.242,145.008C248.094,140.375 252.027,136.051 256,132.047ZM305.598,173.414C303.621,169.988 301.586,166.629 299.508,163.34C305.543,164.383 311.262,165.629 316.613,167.047C315.164,172.395 313.383,177.969 311.27,183.719C309.461,180.273 307.57,176.836 305.598,173.414ZM311.27,220.398C313.383,226.152 315.16,231.727 316.613,237.074C311.262,238.488 305.547,239.734 299.508,240.777C301.586,237.488 303.621,234.129 305.598,230.703C307.57,227.281 309.461,223.844 311.27,220.398ZM256,272.07C252.027,268.066 248.094,263.742 244.242,259.109C248.129,259.266 252.051,259.352 256,259.352C259.953,259.352 263.875,259.266 267.762,259.109C263.906,263.742 259.973,268.066 256,272.07ZM206.402,230.703C208.379,234.129 210.414,237.488 212.492,240.777C206.457,239.734 200.742,238.488 195.387,237.07C196.836,231.723 198.617,226.152 200.734,220.398C202.539,223.844 204.43,227.281 206.402,230.703ZM311.316,297.918C302.711,302.887 288.313,298.566 271.82,286.063C270.227,284.852 268.633,283.563 267.035,282.23C274.246,274.918 281.301,266.613 288.02,257.543C299.238,256.254 309.949,254.297 319.887,251.703C323.965,275.297 320.664,292.516 311.316,297.918ZM366.633,202.059C366.633,212.859 353.379,224.328 330.922,232.594C328.195,222.684 324.535,212.422 320.039,202.059C324.535,191.695 328.195,181.434 330.922,171.523C353.379,179.789 366.633,191.258 366.633,202.059ZM311.316,106.199C320.664,111.602 323.965,128.82 319.887,152.414C309.949,149.82 299.238,147.863 288.02,146.574C281.301,137.504 274.25,129.199 267.035,121.887C268.633,120.555 270.227,119.266 271.82,118.055C288.316,105.551 302.711,101.23 311.316,106.199ZM200.684,106.199C203.027,104.848 205.793,104.184 208.914,104.184C217.273,104.184 228.172,108.953 240.18,118.055C241.773,119.266 243.371,120.555 244.965,121.887C237.754,129.199 230.699,137.504 223.98,146.574C212.766,147.863 202.051,149.82 192.113,152.414C188.039,128.82 191.336,111.602 200.684,106.199ZM191.961,202.059C187.465,212.422 183.805,222.684 181.078,232.594C158.625,224.328 145.371,212.859 145.371,202.059C145.371,191.258 158.625,179.789 181.078,171.523C183.805,181.434 187.465,191.695 191.961,202.059Z" style="fill:white;fill-rule:nonzero;"/>
    </g>
</svg>
