<?xml version="1.0" encoding="UTF-8" standalone="no"?>
<!DOCTYPE svg PUBLIC "-//W3C//DTD SVG 1.1//EN" "http://www.w3.org/Graphics/SVG/1.1/DTD/svg11.dtd">
<svg width="100%" height="100%" viewBox="0 0 512 512" version="1.1" xmlns="http://www.w3.org/2000/svg" xmlns:xlink="http://www.w3.org/1999/xlink" xml:space="preserve" xmlns:serif="http://www.serif.com/" style="fill-rule:evenodd;clip-rule:evenodd;stroke-linejoin:round;stroke-miterlimit:2;">
    <path d="M502,349.996L492,349.996L492,30C492,13.457 478.539,0 462,0L50,0C33.457,0 20,13.457 20,30L20,349.996L10,349.996C4.477,349.996 0,354.477 0,359.996L0,389.996C0,406.539 13.457,419.996 30,419.996L272.648,419.996L272.648,482C272.648,498.543 286.105,512 302.648,512L421.996,512C438.539,512 451.996,498.543 451.996,482L451.996,419.996L482,419.996C498.543,419.996 512,406.539 512,389.996L512,359.996C512,354.477 507.523,349.996 502,349.996ZM451.996,349.996L451.996,329.996L472,329.996L472,349.996L451.996,349.996ZM50,20L462,20C467.512,20 472,24.484 472,30L472,40L40,40L40,30C40,24.484 44.484,20 50,20ZM40,329.996L50,329.996C55.523,329.996 60,325.52 60,319.996C60,314.473 55.523,309.996 50,309.996L40,309.996L40,60L472,60L472,309.996L451.996,309.996L451.996,242C451.996,225.457 438.539,212 421.996,212L302.648,212C298.023,212 293.637,213.055 289.723,214.934L246.789,172L262.645,172C268.168,172 272.645,167.523 272.645,162C272.645,156.477 268.168,152 262.645,152L222.648,152C217.125,152 212.648,156.477 212.648,162L212.648,202C212.648,207.52 217.125,212 222.648,212C228.168,212 232.648,207.52 232.648,202L232.648,186.141L275.582,229.074C273.703,232.992 272.648,237.375 272.648,242L272.648,309.996L140,309.996C134.477,309.996 130,314.473 130,319.996C130,325.52 134.477,329.996 140,329.996L272.648,329.996L272.648,359.996L206,359.996C206,354.477 201.523,349.996 196,349.996L40,349.996L40,329.996ZM30,399.996C24.484,399.996 20,395.512 20,389.996L20,369.996L188.684,369.996C192.148,375.973 198.613,379.996 206,379.996L272.648,379.996L272.648,399.996L30,399.996ZM431.996,482C431.996,487.516 427.512,492 421.996,492L302.648,492C297.133,492 292.648,487.516 292.648,482L292.648,246.141L338.508,292L322.648,292C317.129,292 312.648,296.477 312.648,302C312.648,307.523 317.129,312 322.648,312L362.648,312C368.172,312 372.648,307.523 372.648,302L372.648,262.004C372.648,256.48 368.172,252.004 362.648,252.004C357.125,252.004 352.648,256.48 352.648,262.004L352.648,277.859L306.789,232L421.996,232C427.512,232 431.996,236.488 431.996,242L431.996,482ZM492,389.996C492,395.512 487.512,399.996 482,399.996L451.996,399.996L451.996,369.996L492,369.996L492,389.996Z" style="fill:white;fill-rule:nonzero;"/>
    <path d="M362.328,462L362.32,462C356.797,462 352.324,466.477 352.324,472C352.324,477.52 356.805,482 362.328,482C367.852,482 372.328,477.52 372.328,472C372.328,466.477 367.852,462 362.328,462Z" style="fill:white;fill-rule:nonzero;"/>
    <path d="M387,100.004L441.996,100.004C447.52,100.004 451.996,95.527 451.996,90.004C451.996,84.48 447.52,80.004 441.996,80.004L387.004,80.004C381.48,80.004 377.004,84.48 377.004,90.004C377,95.527 381.477,100.004 387,100.004Z" style="fill:white;fill-rule:nonzero;"/>
    <path d="M342.004,100.004C347.527,100.004 352.004,95.527 352.004,90.004C352.004,84.48 347.527,80.004 342.004,80.004L342,80.004C336.477,80.004 332,84.48 332,90.004C332,95.527 336.48,100.004 342.004,100.004Z" style="fill:white;fill-rule:nonzero;"/>
    <path d="M95.004,309.996L94.996,309.996C89.473,309.996 85,314.473 85,319.996C85,325.52 89.48,329.996 95.004,329.996C100.527,329.996 105.004,325.52 105.004,319.996C105.004,314.473 100.527,309.996 95.004,309.996Z" style="fill:white;fill-rule:nonzero;"/>
</svg>
