<?xml version="1.0" encoding="UTF-8" standalone="no"?>
<!DOCTYPE svg PUBLIC "-//W3C//DTD SVG 1.1//EN" "http://www.w3.org/Graphics/SVG/1.1/DTD/svg11.dtd">
<svg width="100%" height="100%" viewBox="0 0 512 512" version="1.1" xmlns="http://www.w3.org/2000/svg" xmlns:xlink="http://www.w3.org/1999/xlink" xml:space="preserve" xmlns:serif="http://www.serif.com/" style="fill-rule:evenodd;clip-rule:evenodd;stroke-linejoin:round;stroke-miterlimit:2;">
    <path d="M446.767,284.975C439.003,287.911 439.317,287.963 435.21,280.482C429.965,270.953 427.175,260.932 426.934,250.034C426.735,240.682 429.295,231.989 432.514,223.462C435.084,216.681 431.741,214.288 425.868,213.671C421.594,213.232 417.185,213.274 412.901,213.713C401.762,214.852 400.665,215.813 397.708,226.628C395.953,233.044 394.552,239.512 391.637,245.603C384.448,260.597 376.277,275.038 367.897,289.374C366.392,291.955 365.149,294.734 363.028,296.939C356.957,287.848 354.669,277.807 354.157,267.274C353.645,256.877 356.832,247.212 360.332,237.651C361.513,234.433 360.531,232.437 357.751,231.047C356.518,230.431 355.139,229.856 353.791,229.751C346.644,229.187 339.518,229.27 332.548,231.224C329.413,232.091 327.365,233.847 326.665,237.368C325.307,244.254 323.186,250.941 320.322,257.378C312.381,275.204 304.492,293.061 296.561,310.898C289.665,326.394 282.873,341.931 274.702,356.811C274.127,357.866 273.647,359.695 272.205,359.329C270.742,358.963 271.254,357.166 271.191,355.933C270.721,347.156 273.114,338.786 275.151,330.406C278.38,317.146 281.911,303.949 285.339,290.731C286.321,286.938 284.67,284.388 281.525,282.57C277.001,279.968 272.497,279.843 267.597,283.489C268.266,278.097 268.558,273.364 268.328,268.631C267.806,258.078 262.915,251.213 254.4,249.624C248.183,248.464 242.3,250.272 236.741,252.905C223.784,259.039 213.367,268.286 204.61,279.508C203.586,280.814 202.552,282.016 201.068,282.82C184.632,291.775 168.206,300.73 151.812,309.768C150.015,310.771 148.855,310.489 147.559,309.099C139.304,300.249 129.723,292.945 120.235,285.537C106.975,275.172 93.256,265.35 81.814,252.853C75.127,245.539 69.547,237.524 66.757,227.849C62.201,212.029 65.608,197.296 73.194,183.295C82.17,166.733 95.482,153.944 110.162,142.554C133.474,124.477 159.042,110.12 185.99,98.303C216.167,85.085 247.472,76.569 280.814,77.854C294.022,78.366 306.842,80.654 318.608,87.122C326.936,91.699 332.453,98.313 334.01,108.02C335.839,119.388 333.111,129.89 328.065,139.848C316.791,162.094 298.871,177.851 277.69,190.191C260.052,200.462 241.025,206.983 220.889,210.399C209.761,212.29 198.591,213.429 187.4,211.726C174.558,209.772 162.688,205.478 153.901,195.133C152.887,193.942 151.602,193.116 149.878,193.952C148.112,194.809 148.248,196.376 148.415,197.881C148.54,198.915 148.823,199.96 149.188,200.943C151.539,207.286 155.938,212.071 161.089,216.251C174.485,227.149 190.357,230.347 207.023,230.671C223.334,230.995 239.394,228.926 255.287,225.123C291.137,216.555 321.168,198.969 343.09,168.834C356.193,150.82 364.49,130.967 363.758,108.251C363.288,93.842 358.439,81.115 347.938,70.771C335.451,58.493 319.956,52.318 303.331,48.609C284.815,44.492 266.112,43.907 247.22,46.164C230.784,48.128 214.724,51.493 199.092,56.874C175.174,65.118 152.072,75.243 129.962,87.552C107.309,100.153 85.961,114.584 67.237,132.66C50.665,148.657 36.423,166.306 28.398,188.217C24.971,197.6 22.505,207.245 24.804,217.391C27.751,230.452 34.187,241.758 42.651,251.956C55.451,267.4 71.156,279.562 87.352,291.181C100.361,300.522 113.976,309.028 126.473,319.069C130.015,321.911 129.994,321.911 125.825,324.095C120.956,326.634 116.034,329.079 111.249,331.785C91.951,342.695 73.3,354.523 58.075,370.96C50.583,379.058 45.494,388.149 43.123,398.242C41.145,406.664 40.882,423.731 47.451,431.403C55.325,440.599 68.839,445.227 86.925,448.219C115.357,446.004 137.122,431.208 153.203,406.737C160.967,394.919 164.603,381.545 165.972,367.438C167.174,355.004 165.909,342.966 162.252,331.096C161.615,329.006 159.243,326.927 160.173,325.088C161.04,323.395 163.653,322.538 165.575,321.431C173.328,316.927 181.102,312.487 189.085,307.9C189.43,309.614 188.761,310.617 188.469,311.703C183.892,328.495 180.705,345.422 184.185,362.872C186.348,373.739 189.953,383.968 196.807,392.965C203.86,402.223 219.607,401.167 226.001,392.714C232.072,384.689 236.095,375.64 240.285,366.633C242.584,361.701 244.694,356.686 246.889,351.701C246.481,357.699 246.502,363.55 246.722,369.381C246.941,375.128 247.861,380.802 250.849,385.88C254.443,391.982 261.204,393.759 267.484,390.498C274.109,387.06 278.623,381.397 282.133,375.253C297.19,348.828 311.16,321.838 322.727,293.657C325.193,287.67 327.722,281.693 330.512,275.037C330.94,277.221 331.223,278.558 331.484,279.896C334.054,293.323 338.631,306.029 345.256,317.972C346.677,320.532 346.52,322.298 344.723,324.753C338.621,333.06 331.933,340.876 325.34,348.775C319.802,355.421 313.877,361.774 309.196,369.088C304.996,375.671 307.409,382.41 314.4,383.905C316.552,384.365 318.82,384.501 321.025,384.469C333.24,384.323 344.514,380.676 355.016,374.699C369.153,366.643 377.534,354.835 377.147,338.023C376.969,330.374 374.9,323.029 371.818,316.017C371.139,314.46 371.107,313.332 372.121,311.869C381.912,297.846 390.563,283.145 398.515,268.015C399.926,265.351 400.918,262.393 403.196,259.792C403.499,260.847 403.739,261.506 403.875,262.185C406.404,274.724 409.81,286.98 416.205,298.171C417.96,301.233 417.083,302.789 414.659,304.837C406.31,311.932 399.268,320.207 393.74,329.685C389.435,337.062 386.488,344.94 386.52,353.582C386.551,363.195 393.907,368.858 403.28,366.601C413.05,364.26 422.109,360.279 430.238,354.334C447.949,341.367 453.142,327.689 447.594,308.599C445.421,301.086 445.462,301.212 452.996,298.934C469.474,293.96 486.192,293.751 502.994,296.489C504.896,296.802 506.777,297.158 508.636,297.565C509.618,291.599 510.391,285.559 510.935,279.446C489.441,274.192 467.978,276.919 446.767,284.975ZM98.586,419.401C93.811,421.094 88.848,421.815 83.769,421.418C77.447,420.916 73.435,416.455 73.027,409.746C72.567,402.014 74.856,395.034 78.241,388.242C84.395,375.912 94.729,367.543 105.273,359.33C115.523,351.337 126.537,344.513 137.675,337.878C141.05,335.872 141.102,335.893 141.875,339.916C142.878,345.078 143.777,350.25 143.442,354.942C144.321,383.08 123.883,410.446 98.586,419.401ZM251.956,277.514C250.18,289.374 246.303,300.669 242.176,311.828C236.554,327.063 231.079,342.37 224.005,357.02C222.385,360.395 220.682,363.749 218.06,366.497C215.584,369.099 213.389,368.796 211.676,365.619C208.332,359.412 208.75,352.506 208.207,347.49C208.364,322.329 216.807,301.765 230.714,283.281C234.601,278.13 239.564,273.94 246.137,272.257C250.598,271.12 252.656,272.917 251.956,277.514ZM349.341,352.005C344.576,360.239 337.711,366.226 329.289,370.489C328.39,370.938 327.231,371.732 326.416,370.677C325.643,369.684 326.886,369.026 327.45,368.399C335.82,359.256 344.085,350.04 351.535,340.124C351.65,339.967 351.932,339.946 352.569,339.675C352.496,344.263 351.493,348.296 349.341,352.005ZM407.134,351.65C405.891,352.235 404.449,353.332 403.237,352.392C401.9,351.358 402.432,349.529 402.84,348.129C404.742,341.745 407.302,335.632 410.833,329.937C413.8,325.141 417.479,320.951 421.522,317.043C423.152,315.476 423.883,315.664 424.437,317.921C425.012,320.23 425.064,322.539 425.106,324.89C425.002,337.753 418.471,346.311 407.134,351.65Z" style="fill:none;fill-rule:nonzero;stroke:white;stroke-width:15px;"/>
</svg>
