<?xml version="1.0" encoding="UTF-8" standalone="no"?>
<!DOCTYPE svg PUBLIC "-//W3C//DTD SVG 1.1//EN" "http://www.w3.org/Graphics/SVG/1.1/DTD/svg11.dtd">
<svg width="100%" height="100%" viewBox="0 0 512 512" version="1.1" xmlns="http://www.w3.org/2000/svg" xmlns:xlink="http://www.w3.org/1999/xlink" xml:space="preserve" xmlns:serif="http://www.serif.com/" style="fill-rule:evenodd;clip-rule:evenodd;stroke-linejoin:round;stroke-miterlimit:2;">
    <g>
        <g>
            <g>
                <path d="M41.073,152.466C39.648,148.563 35.999,145.915 31.847,145.77C27.672,145.638 23.87,148.015 22.178,151.809C7.468,184.791 0.009,219.844 0.009,255.99C0.009,304.954 13.884,352.549 40.133,393.629C65.681,433.612 101.697,465.682 144.291,486.372C145.709,487.062 147.232,487.397 148.745,487.397C151.219,487.397 153.666,486.497 155.581,484.768C158.666,481.983 159.753,477.604 158.328,473.7L41.073,152.466ZM20.408,255.99C20.408,231.726 24.06,207.996 31.291,185.153L129.791,455.007C61.706,412.039 20.408,337.973 20.408,255.99Z" style="fill:white;fill-rule:nonzero;"/>
                <path d="M345.376,480.765L269.903,273.994C268.432,269.966 264.603,267.292 260.323,267.292L260.227,267.292C255.909,267.333 252.084,270.088 250.677,274.172L176.924,488.465C176.017,491.098 176.227,493.988 177.505,496.463C178.783,498.938 181.018,500.782 183.69,501.569C207.225,508.492 231.555,512 256.001,512C285.054,512 313.657,507.117 341.016,497.486C343.923,496.462 346.211,494.179 347.242,491.274C348.273,488.369 347.934,485.153 346.32,482.527C345.897,481.836 345.594,481.272 345.376,480.765ZM256.001,491.602C237.057,491.602 218.187,489.311 199.763,484.784L260.604,308.011L323.964,481.601C301.937,488.241 279.126,491.602 256.001,491.602Z" style="fill:white;fill-rule:nonzero;"/>
                <path d="M373.292,403.888C377.606,403.888 381.459,401.171 382.904,397.1L410.042,320.662C423.06,287.266 429.388,260.107 429.388,237.64C429.388,203.77 419.365,186.227 410.519,170.749C410.465,170.655 410.41,170.56 410.352,170.466C409.37,168.869 408.393,167.291 407.426,165.729C396.857,148.664 387.728,133.926 387.728,118.158C387.728,102.084 399.607,84.734 418.797,84.734C419.114,84.734 419.601,84.775 420.118,84.819C420.522,84.853 420.923,84.886 421.327,84.912C425.656,85.193 429.668,82.712 431.365,78.733C433.061,74.754 432.064,70.136 428.873,67.213C381.573,23.87 320.18,0 256.001,0C169.666,0 89.708,43.127 42.115,115.365C40.084,118.448 39.877,122.387 41.574,125.665C43.27,128.942 46.606,131.048 50.294,131.17C56.575,131.378 62.013,131.484 66.454,131.484C90.14,131.484 124.83,128.934 131.636,128.416C132.725,130.378 132.829,135.056 131.773,136.806C129.088,137.106 117.454,138.359 104.88,139.015C101.695,139.181 98.772,140.826 96.978,143.464C95.184,146.1 94.727,149.425 95.743,152.448L176.223,392.013C177.618,396.166 181.509,398.964 185.891,398.964L185.902,398.964C190.288,398.959 194.18,396.151 195.567,391.991L249.36,230.668C250.098,228.454 250.056,226.055 249.238,223.868L219.969,145.625C218.553,141.843 215.041,139.252 211.01,139.017C199.426,138.342 188.238,137.029 186.219,136.786C185.3,134.84 185.512,130.349 186.596,128.418C193.598,128.942 228.695,131.482 250.932,131.482C274.622,131.482 309.314,128.932 316.116,128.414C317.206,130.375 317.312,135.055 316.255,136.803C313.578,137.103 301.927,138.357 289.359,139.014C286.166,139.18 283.236,140.835 281.443,143.483C279.651,146.131 279.204,149.466 280.236,152.492L363.64,396.982C365.041,401.09 368.89,403.861 373.23,403.888L373.292,403.888ZM303.83,158.48C312.528,157.772 318.818,157.043 319.205,156.997C330.931,155.611 338.526,144.254 337.266,129.992C336.06,116.359 327.232,107.296 315.843,107.978C315.778,107.982 315.71,107.986 315.645,107.991C315.25,108.022 275.931,111.083 250.929,111.083C227.452,111.083 187.378,108.02 186.976,107.99C186.915,107.985 186.854,107.981 186.792,107.978C175.204,107.283 166.14,117.061 165.303,131.206C164.467,145.332 172.164,156.12 183.654,157.023C185.278,157.22 193.41,158.187 203.163,158.93L228.864,227.636L185.852,356.629L119.288,158.486C128.024,157.777 134.341,157.044 134.732,156.998C146.456,155.612 154.048,144.251 152.787,129.986C151.58,116.357 142.755,107.289 131.368,107.979C131.303,107.983 131.235,107.987 131.17,107.992C130.796,108.023 95.286,110.787 70.291,111.063C114.838,53.96 182.937,20.397 256.001,20.397C307.925,20.397 357.869,37.375 398.758,68.584C380.306,76.771 367.33,95.91 367.33,118.158C367.33,139.731 378.383,157.577 390.085,176.47C391.012,177.967 391.949,179.48 392.891,181.011C401.181,195.52 408.988,209.28 408.988,237.64C408.988,257.282 402.93,282.768 390.98,313.395C390.942,313.493 390.906,313.591 390.871,313.69L373.483,362.662L303.83,158.48Z" style="fill:white;fill-rule:nonzero;"/>
                <path d="M480.631,133.175C478.27,128.867 473.17,126.856 468.498,128.389C463.829,129.927 460.921,134.577 461.581,139.448C462.619,147.113 463.147,155.155 463.147,163.349C463.147,190.173 457.436,216.943 445.176,247.596C445.116,247.746 445.06,247.898 445.007,248.05L369.937,465.106C368.544,469.137 369.805,473.61 373.101,476.319C374.969,477.853 377.267,478.638 379.58,478.638C381.345,478.638 383.119,478.18 384.712,477.25C422.729,455.087 454.601,423.329 476.883,385.408C499.852,346.32 511.992,301.569 511.992,255.991C511.991,213.087 501.147,170.617 480.631,133.175ZM399.158,443.029L464.209,254.943C473.54,231.568 479.346,210.162 481.945,189.217C488.31,210.808 491.595,233.333 491.595,255.991C491.595,329.489 456.798,398.762 399.158,443.029Z" style="fill:white;fill-rule:nonzero;"/>
            </g>
        </g>
    </g>
    <g>
        <g>
            <path d="M262.286,369.734C256.944,367.952 251.167,370.842 249.385,376.185L248.025,380.264C246.244,385.607 249.133,391.383 254.476,393.165C255.546,393.522 256.633,393.691 257.702,393.691C261.972,393.691 265.952,390.988 267.377,386.714L268.737,382.635C270.518,377.292 267.629,371.516 262.286,369.734Z" style="fill:white;fill-rule:nonzero;"/>
        </g>
    </g>
    <g>
        <g>
            <path d="M249.707,407.472C244.363,405.686 238.588,408.58 236.806,413.922L219.807,464.918C218.026,470.261 220.915,476.037 226.258,477.818C227.328,478.176 228.415,478.345 229.484,478.345C233.754,478.345 237.734,475.642 239.159,471.368L256.157,420.372C257.939,415.029 255.05,409.253 249.707,407.472Z" style="fill:white;fill-rule:nonzero;"/>
        </g>
    </g>
</svg>
