<?xml version="1.0" encoding="UTF-8" standalone="no"?>
<!DOCTYPE svg PUBLIC "-//W3C//DTD SVG 1.1//EN" "http://www.w3.org/Graphics/SVG/1.1/DTD/svg11.dtd">
<svg width="100%" height="100%" viewBox="0 0 24 24" version="1.1" xmlns="http://www.w3.org/2000/svg" xmlns:xlink="http://www.w3.org/1999/xlink" xml:space="preserve" xmlns:serif="http://www.serif.com/" style="fill-rule:evenodd;clip-rule:evenodd;stroke-linejoin:round;stroke-miterlimit:2;">
    <path d="M20.947,8.305C20.936,7.548 20.796,6.797 20.528,6.089C20.059,4.88 19.104,3.924 17.895,3.456C17.196,3.193 16.457,3.052 15.709,3.036C14.747,2.993 14.442,2.981 12,2.981C9.558,2.981 9.245,2.981 8.29,3.036C7.543,3.052 6.804,3.193 6.105,3.456C4.896,3.924 3.94,4.88 3.472,6.089C3.209,6.788 3.067,7.527 3.053,8.274C3.01,9.237 2.997,9.542 2.997,11.984C2.997,14.426 2.997,14.738 3.053,15.694C3.068,16.442 3.209,17.18 3.472,17.881C3.941,19.089 4.896,20.045 6.106,20.513C6.802,20.785 7.541,20.939 8.291,20.963C9.254,21.006 9.559,21.019 12.001,21.019C14.443,21.019 14.756,21.019 15.711,20.963C16.458,20.948 17.197,20.807 17.897,20.544C19.106,20.075 20.061,19.119 20.53,17.911C20.793,17.211 20.934,16.473 20.949,15.724C20.992,14.762 21.005,14.457 21.005,12.014C21.003,9.572 21.003,9.262 20.947,8.305ZM11.994,16.602C9.44,16.602 7.371,14.533 7.371,11.979C7.371,9.425 9.44,7.356 11.994,7.356C14.546,7.356 16.617,9.425 16.617,11.979C16.617,14.533 14.546,16.602 11.994,16.602ZM16.801,8.263C16.204,8.263 15.723,7.781 15.723,7.185C15.723,6.589 16.204,6.107 16.801,6.107C17.396,6.107 17.878,6.589 17.878,7.185C17.878,7.781 17.396,8.263 16.801,8.263Z" style="fill:white;fill-rule:nonzero;"/>
    <circle cx="11.994" cy="11.979" r="3.003" style="fill:white;"/>
</svg>
