<?xml version="1.0" encoding="UTF-8" standalone="no"?>
<!DOCTYPE svg PUBLIC "-//W3C//DTD SVG 1.1//EN" "http://www.w3.org/Graphics/SVG/1.1/DTD/svg11.dtd">
<svg width="100%" height="100%" viewBox="0 0 24 24" version="1.1" xmlns="http://www.w3.org/2000/svg" xmlns:xlink="http://www.w3.org/1999/xlink" xml:space="preserve" xmlns:serif="http://www.serif.com/" style="fill-rule:evenodd;clip-rule:evenodd;stroke-linejoin:round;stroke-miterlimit:2;">
    <path d="M20,3L4,3C3.447,3 3,3.448 3,4L3,20C3,20.552 3.447,21 4,21L20,21C20.553,21 21,20.552 21,20L21,4C21,3.448 20.553,3 20,3ZM8.339,18.337L5.667,18.337L5.667,9.747L8.339,9.747L8.339,18.337ZM7.003,8.574C6.147,8.574 5.455,7.88 5.455,7.026C5.455,6.172 6.146,5.478 7.003,5.478C7.857,5.478 8.551,6.171 8.551,7.026C8.551,7.881 7.857,8.574 7.003,8.574ZM18.338,18.337L15.669,18.337L15.669,14.16C15.669,13.164 15.651,11.883 14.281,11.883C12.891,11.883 12.68,12.969 12.68,14.09L12.68,18.338L10.013,18.338L10.013,9.748L12.573,9.748L12.573,10.922L12.61,10.922C12.965,10.247 13.837,9.535 15.134,9.535C17.838,9.535 18.337,11.313 18.337,13.627L18.337,18.337L18.338,18.337Z" style="fill:white;fill-rule:nonzero;"/>
</svg>
