<?xml version="1.0" encoding="UTF-8" standalone="no"?>
<!DOCTYPE svg PUBLIC "-//W3C//DTD SVG 1.1//EN" "http://www.w3.org/Graphics/SVG/1.1/DTD/svg11.dtd">
<svg width="100%" height="100%" viewBox="0 0 511 511" version="1.1" xmlns="http://www.w3.org/2000/svg" xmlns:xlink="http://www.w3.org/1999/xlink" xml:space="preserve" xmlns:serif="http://www.serif.com/" style="fill-rule:evenodd;clip-rule:evenodd;stroke-linejoin:round;stroke-miterlimit:2;">
    <path d="M58.846,187.18C60.304,188.638 62.218,189.371 64.133,189.371C66.047,189.371 67.961,188.642 69.423,187.18C72.343,184.26 72.343,179.523 69.423,176.603L51.263,158.443L69.423,140.288C72.343,137.364 72.343,132.631 69.423,129.711C66.503,126.79 61.766,126.79 58.846,129.711L35.4,153.157C33.996,154.56 33.209,156.463 33.209,158.443C33.209,160.428 33.996,162.33 35.4,163.734L58.846,187.18Z" style="fill:white;fill-rule:nonzero;"/>
    <path d="M133.06,158.443L114.901,176.603C111.981,179.523 111.981,184.26 114.904,187.18C116.363,188.638 118.277,189.371 120.191,189.371C122.105,189.371 124.02,188.638 125.478,187.18L148.928,163.73C151.848,160.81 151.848,156.073 148.928,153.157L125.478,129.707C122.558,126.787 117.825,126.787 114.904,129.707C111.981,132.631 111.981,137.364 114.904,140.284L133.06,158.443Z" style="fill:white;fill-rule:nonzero;"/>
    <path d="M81.014,188.853C81.91,189.204 82.838,189.371 83.747,189.371C86.733,189.371 89.552,187.57 90.71,184.627L109.131,137.73C110.643,133.886 108.749,129.547 104.904,128.034C101.064,126.525 96.721,128.416 95.212,132.26L76.788,179.157C75.279,183.001 77.17,187.344 81.014,188.853Z" style="fill:white;fill-rule:nonzero;"/>
    <path d="M44.92,233.247L95.302,233.247C99.431,233.247 102.78,229.898 102.78,225.765C102.78,221.636 99.431,218.288 95.302,218.288L44.92,218.288C40.788,218.288 37.442,221.636 37.442,225.765C37.442,229.898 40.788,233.247 44.92,233.247Z" style="fill:white;fill-rule:nonzero;"/>
    <path d="M211.341,218.288L122.764,218.288C118.635,218.288 115.287,221.636 115.287,225.765C115.287,229.898 118.635,233.247 122.764,233.247L211.341,233.247C215.474,233.247 218.823,229.898 218.823,225.765C218.823,221.636 215.474,218.288 211.341,218.288Z" style="fill:white;fill-rule:nonzero;"/>
    <path d="M44.92,264.79L66.382,264.79C70.511,264.79 73.86,261.442 73.86,257.309C73.86,253.18 70.511,249.831 66.382,249.831L44.92,249.831C40.788,249.831 37.442,253.18 37.442,257.309C37.442,261.442 40.788,264.79 44.92,264.79Z" style="fill:white;fill-rule:nonzero;"/>
    <path d="M183.981,249.831C179.848,249.831 176.503,253.18 176.503,257.309C176.503,261.442 179.848,264.79 183.981,264.79L197.049,264.79C201.181,264.79 204.53,261.442 204.53,257.309C204.53,253.18 201.181,249.831 197.049,249.831L183.981,249.831Z" style="fill:white;fill-rule:nonzero;"/>
    <path d="M164.296,257.309C164.296,253.18 160.947,249.831 156.819,249.831L92.624,249.831C88.491,249.831 85.146,253.18 85.146,257.309C85.146,261.442 88.491,264.79 92.624,264.79L156.819,264.79C160.947,264.79 164.296,261.442 164.296,257.309Z" style="fill:white;fill-rule:nonzero;"/>
    <path d="M213.287,257.309C213.287,261.442 216.635,264.79 220.764,264.79L245.244,264.79C249.376,264.79 252.725,261.442 252.725,257.309C252.725,253.18 249.376,249.831 245.244,249.831L220.764,249.831C216.635,249.831 213.287,253.18 213.287,257.309Z" style="fill:white;fill-rule:nonzero;"/>
    <path d="M172.558,164.443L198.378,164.443C202.511,164.443 205.86,161.095 205.86,156.962C205.86,152.833 202.511,149.484 198.378,149.484L172.558,149.484C168.425,149.484 165.076,152.833 165.076,156.962C165.076,161.095 168.425,164.443 172.558,164.443Z" style="fill:white;fill-rule:nonzero;"/>
    <path d="M227.298,164.443L384.846,164.443C388.979,164.443 392.324,161.095 392.324,156.962C392.324,152.833 388.979,149.484 384.846,149.484L227.298,149.484C223.166,149.484 219.817,152.833 219.817,156.962C219.817,161.095 223.166,164.443 227.298,164.443Z" style="fill:white;fill-rule:nonzero;"/>
    <path d="M360.916,182.389L297.096,182.389C292.967,182.389 289.618,185.738 289.618,189.87C289.618,193.999 292.967,197.348 297.096,197.348L360.916,197.348C365.045,197.348 368.394,193.999 368.394,189.87C368.394,185.738 365.045,182.389 360.916,182.389Z" style="fill:white;fill-rule:nonzero;"/>
    <path d="M273.166,182.389L251.228,182.389C247.096,182.389 243.751,185.738 243.751,189.87C243.751,193.999 247.096,197.348 251.228,197.348L273.166,197.348C277.298,197.348 280.643,193.999 280.643,189.87C280.643,185.738 277.298,182.389 273.166,182.389Z" style="fill:white;fill-rule:nonzero;"/>
    <path d="M172.558,197.348L226.3,197.348C230.429,197.348 233.778,193.999 233.778,189.87C233.778,185.738 230.429,182.389 226.3,182.389L172.558,182.389C168.425,182.389 165.076,185.738 165.076,189.87C165.076,193.999 168.425,197.348 172.558,197.348Z" style="fill:white;fill-rule:nonzero;"/>
    <path d="M156.912,281.11L106.534,281.11C102.402,281.11 99.053,284.459 99.053,288.588C99.053,292.716 102.402,296.065 106.534,296.065L156.912,296.065C161.041,296.065 164.39,292.716 164.39,288.588C164.39,284.459 161.041,281.11 156.912,281.11Z" style="fill:white;fill-rule:nonzero;"/>
    <path d="M83.626,281.11L44.92,281.11C40.788,281.11 37.442,284.459 37.442,288.588C37.442,292.716 40.788,296.065 44.92,296.065L83.626,296.065C87.758,296.065 91.103,292.716 91.103,288.588C91.103,284.459 87.758,281.11 83.626,281.11Z" style="fill:white;fill-rule:nonzero;"/>
    <path d="M248.238,281.11L182.425,281.11C178.292,281.11 174.947,284.459 174.947,288.588C174.947,292.716 178.292,296.065 182.425,296.065L248.238,296.065C252.366,296.065 255.715,292.716 255.715,288.588C255.715,284.459 252.366,281.11 248.238,281.11Z" style="fill:white;fill-rule:nonzero;"/>
    <path d="M337.24,242.693L301.251,242.693C297.123,242.693 293.774,246.042 293.774,250.171C293.774,254.303 297.123,257.652 301.251,257.652L337.24,257.652C341.372,257.652 344.717,254.303 344.717,250.171C344.717,246.042 341.372,242.693 337.24,242.693Z" style="fill:white;fill-rule:nonzero;"/>
    <path d="M399.688,257.652L450.491,257.652C454.624,257.652 457.973,254.303 457.973,250.171C457.973,246.042 454.624,242.693 450.491,242.693L399.688,242.693C395.556,242.693 392.211,246.042 392.211,250.171C392.211,254.303 395.559,257.652 399.688,257.652Z" style="fill:white;fill-rule:nonzero;"/>
    <path d="M374.285,242.693L362.643,242.693C358.511,242.693 355.162,246.042 355.162,250.171C355.162,254.303 358.511,257.652 362.643,257.652L374.285,257.652C378.417,257.652 381.762,254.303 381.762,250.171C381.762,246.042 378.417,242.693 374.285,242.693Z" style="fill:white;fill-rule:nonzero;"/>
    <path d="M301.251,339.149L337.24,339.149C341.372,339.149 344.717,335.804 344.717,331.672C344.717,327.543 341.372,324.194 337.24,324.194L301.251,324.194C297.123,324.194 293.774,327.543 293.774,331.672C293.774,335.804 297.123,339.149 301.251,339.149Z" style="fill:white;fill-rule:nonzero;"/>
    <path d="M399.688,339.149L450.491,339.149C454.624,339.149 457.973,335.804 457.973,331.672C457.973,327.543 454.624,324.194 450.491,324.194L399.688,324.194C395.556,324.194 392.211,327.543 392.211,331.672C392.211,335.804 395.559,339.149 399.688,339.149Z" style="fill:white;fill-rule:nonzero;"/>
    <path d="M362.643,339.149L374.285,339.149C378.417,339.149 381.766,335.804 381.766,331.672C381.766,327.543 378.417,324.194 374.285,324.194L362.643,324.194C358.511,324.194 355.166,327.543 355.166,331.672C355.166,335.804 358.511,339.149 362.643,339.149Z" style="fill:white;fill-rule:nonzero;"/>
    <path d="M337.24,405.695L301.251,405.695C297.123,405.695 293.774,409.044 293.774,413.173C293.774,417.301 297.123,420.65 301.251,420.65L337.24,420.65C341.372,420.65 344.717,417.301 344.717,413.173C344.717,409.044 341.372,405.695 337.24,405.695Z" style="fill:white;fill-rule:nonzero;"/>
    <path d="M450.491,405.695L399.688,405.695C395.556,405.695 392.211,409.044 392.211,413.173C392.211,417.301 395.556,420.65 399.688,420.65L450.491,420.65C454.624,420.65 457.973,417.301 457.973,413.173C457.973,409.044 454.624,405.695 450.491,405.695Z" style="fill:white;fill-rule:nonzero;"/>
    <path d="M374.285,405.695L362.643,405.695C358.511,405.695 355.162,409.044 355.162,413.173C355.162,417.301 358.511,420.65 362.643,420.65L374.285,420.65C378.417,420.65 381.762,417.301 381.762,413.173C381.762,409.044 378.417,405.695 374.285,405.695Z" style="fill:white;fill-rule:nonzero;"/>
    <path d="M478.09,0.997L32.916,0.997C14.768,0.997 -0,15.761 -0,33.913L-0,395.773C-0,413.921 14.768,428.685 32.916,428.685L61.06,428.685C65.189,428.685 68.538,425.34 68.538,421.208C68.538,417.079 65.189,413.73 61.06,413.73L32.916,413.73C23.014,413.73 14.959,405.675 14.959,395.773L14.959,367.403L287.423,367.403L287.423,380.291L281.493,380.291C273.38,380.291 266.784,386.888 266.784,395.001L266.784,413.73L106.53,413.73C102.402,413.73 99.053,417.079 99.053,421.208C99.053,425.34 102.402,428.685 106.53,428.685L178.437,428.685L178.437,455.508L155.856,455.508C140.791,455.508 128.538,467.765 128.538,482.826L128.538,498.982C128.538,505.855 134.129,511.445 141.002,511.445L369.431,511.445C376.304,511.445 381.895,505.855 381.895,498.982L381.895,482.826C381.895,467.765 369.641,455.508 354.577,455.508L331.996,455.508L331.996,446.054L470.253,446.054C478.363,446.054 484.959,439.457 484.959,431.344L484.959,427.824C499.536,424.44 510.433,411.36 510.433,395.773L510.998,33.909C511.002,15.761 496.238,0.997 478.09,0.997ZM281.743,349.597L281.743,313.75L470.004,313.75L470.004,349.597L281.743,349.597ZM302.378,298.79L302.378,283.056L449.365,283.056L449.365,298.79L302.378,298.79ZM449.365,364.553L449.365,380.291L302.378,380.291L302.378,364.553L449.365,364.553ZM193.392,428.685L266.784,428.685L266.784,431.348C266.784,439.457 273.38,446.054 281.493,446.054L317.041,446.054L317.041,455.508L193.392,455.508L193.392,428.685ZM354.581,470.467C361.396,470.467 366.94,476.011 366.94,482.826L366.94,496.49L143.493,496.49L143.493,482.826C143.493,476.011 149.041,470.467 155.856,470.467L354.581,470.467ZM470.004,431.095L281.743,431.095L281.743,395.251L470.004,395.251L470.004,431.095ZM495.478,395.773C495.478,403.017 491.158,409.258 484.963,412.093L484.963,394.997C484.963,386.888 478.363,380.291 470.253,380.291L464.324,380.291L464.324,367.403L495.478,367.403L495.478,395.773ZM495.478,352.447L484.717,352.447C484.869,351.601 484.963,313.5 484.963,313.5C484.963,305.387 478.363,298.79 470.253,298.79L464.324,298.79L464.324,283.056L470.253,283.056C478.363,283.056 484.963,276.455 484.963,268.346L484.963,231.999C484.963,223.89 478.363,217.289 470.253,217.289L428.012,217.289C423.879,217.289 420.534,220.638 420.534,224.771C420.534,228.9 423.879,232.249 428.012,232.249L470.004,232.249L470.004,268.096L281.743,268.096L281.743,232.249L381.478,232.249C385.61,232.249 388.955,228.9 388.955,224.771C388.955,220.638 385.61,217.289 381.478,217.289L281.493,217.289C273.38,217.289 266.784,223.89 266.784,231.999L266.784,268.346C266.784,276.455 273.38,283.056 281.493,283.056L287.423,283.056L287.423,298.79L281.493,298.79C273.38,298.79 266.784,305.391 266.784,313.5C266.784,313.5 266.877,351.601 267.029,352.447L14.959,352.447L14.959,102.728L495.478,102.728L495.478,352.447ZM495.478,87.769L15.509,87.769L15.509,33.909C15.509,24.011 23.563,15.956 33.466,15.956L477.521,15.956C487.423,15.956 495.478,24.011 495.478,33.913L495.478,87.769Z" style="fill:white;fill-rule:nonzero;"/>
    <path d="M55.154,29.703C43.053,29.703 33.209,39.547 33.209,51.648C33.209,63.749 43.053,73.597 55.154,73.597C67.255,73.597 77.103,63.749 77.103,51.648C77.103,39.547 67.255,29.703 55.154,29.703ZM55.154,58.638C51.302,58.638 48.164,55.504 48.164,51.648C48.164,47.796 51.302,44.658 55.154,44.658C59.01,44.658 62.144,47.796 62.144,51.648C62.144,55.504 59.01,58.638 55.154,58.638Z" style="fill:white;fill-rule:nonzero;"/>
    <path d="M111.033,29.703C98.932,29.703 89.084,39.547 89.084,51.648C89.084,63.749 98.932,73.597 111.033,73.597C123.135,73.597 132.979,63.749 132.979,51.648C132.979,39.547 123.131,29.703 111.033,29.703ZM111.033,58.638C107.177,58.638 104.043,55.504 104.043,51.648C104.043,47.796 107.177,44.658 111.033,44.658C114.885,44.658 118.023,47.796 118.023,51.648C118.023,55.504 114.885,58.638 111.033,58.638Z" style="fill:white;fill-rule:nonzero;"/>
    <path d="M166.908,29.703C154.807,29.703 144.963,39.547 144.963,51.648C144.963,63.749 154.807,73.597 166.908,73.597C179.01,73.597 188.858,63.749 188.858,51.648C188.858,39.547 179.01,29.703 166.908,29.703ZM166.908,58.638C163.057,58.638 159.918,55.504 159.918,51.648C159.918,47.796 163.057,44.658 166.908,44.658C170.764,44.658 173.899,47.796 173.899,51.648C173.899,55.504 170.764,58.638 166.908,58.638Z" style="fill:white;fill-rule:nonzero;"/>
</svg>
