<?xml version="1.0" encoding="UTF-8" standalone="no"?>
<!DOCTYPE svg PUBLIC "-//W3C//DTD SVG 1.1//EN" "http://www.w3.org/Graphics/SVG/1.1/DTD/svg11.dtd">
<svg width="100%" height="100%" viewBox="0 0 512 512" version="1.1" xmlns="http://www.w3.org/2000/svg" xmlns:xlink="http://www.w3.org/1999/xlink" xml:space="preserve" xmlns:serif="http://www.serif.com/" style="fill-rule:evenodd;clip-rule:evenodd;stroke-linejoin:round;stroke-miterlimit:2;">
    <path d="M279.36,100.84C278.098,97.905 275.194,95.996 272,96L240,96C236.806,95.996 233.902,97.905 232.64,100.84L160.64,268.84C159.75,270.879 159.75,273.201 160.64,275.24L191.44,344.4L176.4,389.48C176.13,390.293 175.993,391.144 175.993,392C175.993,396.389 179.604,400 183.993,400C183.995,400 183.998,400 184,400L328,400C328.002,400 328.005,400 328.007,400C332.396,400 336.007,396.389 336.007,392C336.007,391.144 335.87,390.293 335.6,389.48L320.56,344.4L351.32,275.24C352.21,273.201 352.21,270.879 351.32,268.84L279.36,100.84ZM256,244C269.166,244 280,254.834 280,268C280,281.166 269.166,292 256,292C242.834,292 232,281.166 232,268C232,254.834 242.834,244 256,244ZM195.08,384L205.76,352L306.24,352L316.92,384L195.08,384ZM306.8,336L205.2,336L176.72,272L245.28,112L248,112L248,228.8C229.447,232.587 216,249.056 216,267.992C216,289.935 234.057,307.992 256,307.992C277.943,307.992 296,289.935 296,267.992C296,249.056 282.553,232.587 264,228.8L264,112L266.72,112L335.28,272L306.8,336Z" style="fill:white;fill-rule:nonzero;"/>
    <path d="M500,228L481.72,228C470.201,147.025 416.011,78.198 340,48L401.48,48C404.862,57.566 413.961,64 424.107,64C437.273,64 448.107,53.166 448.107,40C448.107,26.834 437.273,16 424.107,16C413.961,16 404.862,22.434 401.48,32L295.2,32C291.429,13.428 274.951,-0.04 256,-0.04C237.049,-0.04 220.571,13.428 216.8,32L110.6,32C107.218,22.434 98.119,16 87.973,16C74.807,16 63.973,26.834 63.973,40C63.973,53.166 74.807,64 87.973,64C98.119,64 107.218,57.566 110.6,48L172,48C95.989,78.198 41.799,147.025 30.28,228L12,228C7.611,228 4,231.611 4,236L4,284C4,288.389 7.611,292 12,292L30.28,292C44.124,392.376 123.624,471.876 224,485.72L224,504C224,508.389 227.611,512 232,512L280,512C284.389,512 288,508.389 288,504L288,485.72C388.376,471.876 467.876,392.376 481.72,292L500,292C504.389,292 508,288.389 508,284L508,236C508,231.611 504.389,228 500,228ZM424,32C428.389,32 432,35.611 432,40C432,44.389 428.389,48 424,48C419.611,48 416,44.389 416,40C416,35.611 419.611,32 424,32ZM256,16C269.166,16 280,26.834 280,40C280,53.166 269.166,64 256,64C242.834,64 232,53.166 232,40C232,26.834 242.834,16 256,16ZM88,48C83.611,48 80,44.389 80,40C80,35.611 83.611,32 88,32C92.389,32 96,35.611 96,40C96,44.389 92.389,48 88,48ZM20,244L52,244L52,276L20,276L20,244ZM272,496L240,496L240,464L272,464L272,496ZM288,469.56L288,456C288,451.611 284.389,448 280,448L232,448C227.611,448 224,451.611 224,456L224,469.56C132.442,455.942 60.058,383.558 46.44,292L60,292C64.389,292 68,288.389 68,284L68,236C68,231.611 64.389,228 60,228L46.44,228C60.095,138.929 129.065,67.833 217.68,51.48C222.734,68.363 238.377,80.009 256,80.009C273.623,80.009 289.266,68.363 294.32,51.48C382.935,67.833 451.905,138.929 465.56,228L452,228C447.611,228 444,231.611 444,236L444,284C444,288.389 447.611,292 452,292L465.56,292C451.954,383.564 379.564,455.954 288,469.56ZM492,276L460,276L460,244L492,244L492,276Z" style="fill:white;fill-rule:nonzero;"/>
</svg>
