<?xml version="1.0" encoding="UTF-8" standalone="no"?>
<!DOCTYPE svg PUBLIC "-//W3C//DTD SVG 1.1//EN" "http://www.w3.org/Graphics/SVG/1.1/DTD/svg11.dtd">
<svg width="100%" height="100%" viewBox="0 0 512 512" version="1.1" xmlns="http://www.w3.org/2000/svg" xmlns:xlink="http://www.w3.org/1999/xlink" xml:space="preserve" xmlns:serif="http://www.serif.com/" style="fill-rule:evenodd;clip-rule:evenodd;stroke-linejoin:round;stroke-miterlimit:2;">
    <g>
        <path d="M488.057,174.123L466.518,174.123L466.518,154.384C466.518,144.918 458.817,137.216 449.351,137.216L444.348,137.216L444.348,123.233L488.338,123.233C501.386,123.233 512,112.619 512,99.571C512,86.524 501.385,75.909 488.338,75.909L444.348,75.909L444.348,71.454C444.348,67.317 440.995,63.963 436.857,63.963C432.719,63.963 429.366,67.317 429.366,71.454L429.366,75.909L385.375,75.909C372.328,75.909 361.713,86.524 361.713,99.571C361.713,112.619 372.329,123.233 385.375,123.233L429.366,123.233L429.366,137.216L424.364,137.216C414.897,137.216 407.196,144.917 407.196,154.384L407.196,174.123L387.528,174.123C384.295,174.123 381.072,174.912 378.209,176.403L374.904,178.123L345.838,149.058C339.216,142.436 330.412,138.789 321.047,138.789L235.614,138.789C231.477,138.789 228.123,142.143 228.123,146.28C228.123,150.417 231.477,153.771 235.614,153.771L321.047,153.771C326.409,153.771 331.451,155.86 335.244,159.652L360.969,185.378L321.903,205.714C320.536,206.424 319.001,206.8 317.461,206.8L194.54,206.8C193,206.8 191.464,206.425 190.098,205.714L151.032,185.378L176.757,159.652C180.549,155.86 185.591,153.771 190.954,153.771L203.689,153.771C207.826,153.771 211.18,150.417 211.18,146.28C211.18,142.143 207.826,138.789 203.689,138.789L190.954,138.789C181.588,138.789 172.784,142.436 166.163,149.058L137.097,178.123L133.792,176.403C130.927,174.911 127.705,174.123 124.472,174.123L104.804,174.123L104.804,154.384C104.804,144.918 97.103,137.216 87.636,137.216L82.634,137.216L82.634,123.233L126.625,123.233C139.672,123.233 150.287,112.619 150.287,99.571C150.287,86.524 139.672,75.909 126.625,75.909L82.634,75.909L82.634,71.454C82.634,67.317 79.28,63.963 75.143,63.963C71.006,63.963 67.652,67.317 67.652,71.454L67.652,75.909L23.662,75.909C10.614,75.909 0,86.525 0,99.572C0,112.62 10.614,123.234 23.662,123.234L67.652,123.234L67.652,137.217L62.65,137.217C53.184,137.217 45.483,144.918 45.483,154.385L45.483,174.124L23.944,174.124C10.804,174.124 0.115,184.814 0.115,197.954C0.115,211.093 10.805,221.783 23.944,221.783L72.097,221.783L36.72,274.915C34.982,277.526 34.182,280.684 34.469,283.806L36.75,308.7C37.107,312.587 40.372,315.507 44.201,315.507C44.43,315.507 44.661,315.497 44.893,315.476C49.014,315.098 52.047,311.452 51.669,307.332L49.428,282.862L90.096,221.782L93.265,221.782L116.08,247.359L71.535,289.936C68.83,292.522 67.278,296.152 67.278,299.893L67.278,387.854C67.278,390.118 65.436,391.96 63.172,391.96C61.036,391.96 59.279,390.356 59.083,388.229L54.584,339.132C54.206,335.012 50.572,331.979 46.441,332.356C42.32,332.734 39.287,336.38 39.665,340.5L44.164,389.596C45.071,399.484 53.242,406.942 63.172,406.942C73.697,406.942 82.26,398.38 82.26,387.854L82.26,300.41L126.06,258.545L163.321,300.317C167.984,305.543 174.676,308.541 181.68,308.541L226.163,308.541L226.163,337.231C224.55,338.152 222.985,339.147 221.472,340.212L181.407,340.212C172.293,340.212 164.88,347.625 164.88,356.738L164.88,365.561L150.844,365.561L150.844,363.713C150.844,355.284 143.986,348.425 135.556,348.425L122.131,348.425C113.702,348.425 106.843,355.283 106.843,363.713L106.843,413.756C106.843,422.185 113.701,429.044 122.131,429.044L135.556,429.044C143.985,429.044 150.844,422.186 150.844,413.756L150.844,411.908L164.88,411.908L164.88,420.731C164.88,429.844 172.293,437.257 181.407,437.257L221.472,437.257C231.112,444.039 242.845,448.036 255.501,448.036C268.157,448.036 279.89,444.038 289.53,437.257L329.595,437.257C338.708,437.257 346.122,429.843 346.122,420.731L346.122,411.908L360.158,411.908L360.158,413.756C360.158,422.185 367.016,429.044 375.446,429.044L388.871,429.044C397.3,429.044 404.159,422.186 404.159,413.756L404.159,363.713C404.159,355.284 397.301,348.425 388.871,348.425L375.446,348.425C367.017,348.425 360.158,355.283 360.158,363.713L360.158,365.561L346.122,365.561L346.122,356.738C346.122,347.625 338.708,340.212 329.595,340.212L289.53,340.212C288.016,339.147 286.451,338.152 284.839,337.231L284.839,308.542L330.321,308.542C337.325,308.542 344.016,305.544 348.679,300.318L385.941,258.546L429.741,300.411L429.741,387.855C429.741,398.381 438.304,406.943 448.828,406.943C458.758,406.943 466.93,399.486 467.836,389.597L477.531,283.804C477.817,280.683 477.017,277.527 475.28,274.915L439.903,221.783L488.056,221.783C501.195,221.783 511.884,211.093 511.884,197.954C511.884,184.814 501.196,174.123 488.057,174.123ZM488.338,90.892C493.125,90.892 497.018,94.785 497.018,99.571C497.018,104.357 493.125,108.251 488.338,108.251L444.348,108.251L444.348,90.892L488.338,90.892ZM385.375,108.252C380.589,108.252 376.695,104.358 376.695,99.572C376.695,94.786 380.589,90.893 385.375,90.893L429.366,90.893L429.366,108.252L385.375,108.252ZM126.625,90.892C131.411,90.892 135.305,94.785 135.305,99.571C135.305,104.357 131.411,108.251 126.625,108.251L82.634,108.251L82.634,90.892L126.625,90.892ZM23.662,108.252C18.875,108.252 14.982,104.358 14.982,99.572C14.982,94.786 18.875,90.893 23.662,90.893L67.652,90.893L67.652,108.252L23.662,108.252ZM422.179,154.384C422.179,153.179 423.159,152.198 424.365,152.198L449.352,152.198C450.556,152.198 451.537,153.178 451.537,154.384L451.537,174.123L422.18,174.123L422.18,154.384L422.179,154.384ZM60.465,154.384C60.465,153.179 61.445,152.198 62.65,152.198L87.637,152.198C88.842,152.198 89.823,153.178 89.823,154.384L89.823,174.123L60.465,174.123L60.465,154.384ZM135.862,413.757C135.862,413.925 135.725,414.063 135.556,414.063L122.131,414.063C121.963,414.063 121.826,413.926 121.826,413.757L121.826,363.714C121.826,363.546 121.962,363.408 122.131,363.408L135.556,363.408C135.724,363.408 135.862,363.545 135.862,363.714L135.862,413.757ZM150.844,396.927L150.844,380.544L164.88,380.544L164.88,396.927L150.844,396.927ZM179.862,420.732L179.862,356.739C179.862,355.887 180.555,355.195 181.407,355.195L206.63,355.195C200.058,364.742 196.199,376.295 196.199,388.736C196.199,401.177 200.058,412.729 206.63,422.277L181.407,422.277C180.555,422.276 179.862,421.583 179.862,420.732ZM211.181,388.735C211.181,364.297 231.063,344.415 255.501,344.415C279.94,344.415 299.821,364.297 299.821,388.735C299.821,413.173 279.94,433.055 255.501,433.055C231.062,433.056 211.181,413.174 211.181,388.735ZM375.14,363.714C375.14,363.546 375.277,363.408 375.446,363.408L388.871,363.408C389.04,363.408 389.177,363.545 389.177,363.714L389.177,413.757C389.177,413.925 389.04,414.063 388.871,414.063L375.446,414.063C375.277,414.063 375.14,413.926 375.14,413.757L375.14,363.714ZM360.158,380.544L360.158,396.927L346.122,396.927L346.122,380.544L360.158,380.544ZM331.14,356.739L331.14,420.732C331.14,421.584 330.447,422.276 329.595,422.276L304.372,422.276C310.944,412.729 314.803,401.176 314.803,388.735C314.803,376.294 310.944,364.742 304.372,355.194L329.595,355.194C330.447,355.195 331.14,355.887 331.14,356.739ZM269.857,331.2C265.257,330.052 260.451,329.433 255.501,329.433C250.551,329.433 245.745,330.052 241.145,331.2L241.145,308.542L269.857,308.542L269.857,331.2ZM462.573,282.862L452.917,388.23C452.722,390.357 450.964,391.961 448.828,391.961C446.564,391.961 444.723,390.119 444.723,387.855L444.723,299.894C444.723,296.153 443.172,292.524 440.465,289.936L395.92,247.36L418.735,221.783L421.903,221.783L462.573,282.862ZM488.057,206.8L415.379,206.8C413.244,206.8 411.21,207.711 409.789,209.304L360.779,264.245L323.274,264.245C319.136,264.245 315.783,267.599 315.783,271.736C315.783,275.873 319.136,279.227 323.274,279.227L347.415,279.227L337.498,290.344C335.675,292.387 333.06,293.559 330.32,293.559L181.68,293.559C178.941,293.559 176.325,292.387 174.501,290.343L164.585,279.226L291.349,279.226C295.487,279.226 298.84,275.872 298.84,271.735C298.84,267.598 295.487,264.244 291.349,264.244L151.221,264.244L102.211,209.303C100.79,207.71 98.756,206.799 96.621,206.799L23.944,206.799C19.065,206.799 15.097,202.83 15.097,197.952C15.097,193.074 19.066,189.104 23.944,189.104L124.472,189.104C125.305,189.104 126.135,189.307 126.874,189.692L183.178,219.001C186.671,220.819 190.6,221.78 194.539,221.78L317.461,221.78C321.399,221.78 325.328,220.819 328.821,219.001L385.127,189.69C385.865,189.306 386.695,189.103 387.528,189.103L488.056,189.103C492.934,189.103 496.902,193.073 496.902,197.951C496.902,202.829 492.934,206.8 488.057,206.8Z" style="fill:white;fill-rule:nonzero;"/>
        <path d="M255.501,359.397C239.324,359.397 226.163,372.558 226.163,388.735C226.163,404.912 239.324,418.073 255.501,418.073C271.678,418.073 284.839,404.912 284.839,388.735C284.839,372.558 271.678,359.397 255.501,359.397ZM255.501,403.092C247.586,403.092 241.145,396.652 241.145,388.736C241.145,380.821 247.586,374.38 255.501,374.38C263.418,374.38 269.857,380.821 269.857,388.736C269.857,396.652 263.417,403.092 255.501,403.092Z" style="fill:white;fill-rule:nonzero;"/>
    </g>
</svg>
