<?xml version="1.0" encoding="UTF-8" standalone="no"?>
<!DOCTYPE svg PUBLIC "-//W3C//DTD SVG 1.1//EN" "http://www.w3.org/Graphics/SVG/1.1/DTD/svg11.dtd">
<svg width="100%" height="100%" viewBox="0 0 512 512" version="1.1" xmlns="http://www.w3.org/2000/svg" xmlns:xlink="http://www.w3.org/1999/xlink" xml:space="preserve" xmlns:serif="http://www.serif.com/" style="fill-rule:evenodd;clip-rule:evenodd;stroke-linejoin:round;stroke-miterlimit:2;">
    <g>
        <g>
            <path d="M366.884,262.048C353.778,262.049 343.117,272.71 343.117,285.814C343.117,298.919 353.779,309.58 366.884,309.58C379.989,309.58 390.65,298.919 390.65,285.814C390.651,272.71 379.99,262.048 366.884,262.048ZM366.883,294.582C362.048,294.582 358.114,290.648 358.114,285.814C358.114,280.98 362.048,277.046 366.883,277.046C371.719,277.047 375.651,280.98 375.651,285.814C375.651,290.648 371.718,294.582 366.883,294.582Z" style="fill:white;fill-rule:nonzero;"/>
        </g>
    </g>
    <g>
        <g>
            <path d="M284.082,410.503L261,410.503C256.857,410.503 253.501,413.86 253.501,418.002C253.501,422.145 256.858,425.501 261,425.501L284.083,425.501C288.226,425.501 291.582,422.144 291.582,418.002C291.581,413.86 288.225,410.503 284.082,410.503Z" style="fill:white;fill-rule:nonzero;"/>
        </g>
    </g>
    <g>
        <g>
            <path d="M316.369,415.136C316.18,414.675 315.448,413.415 314.749,412.696C313.01,410.956 310.419,410.156 307.981,410.646C307.5,410.746 307.031,410.885 306.581,411.076C306.121,411.266 305.691,411.496 305.281,411.766C304.871,412.036 304.491,412.356 304.141,412.696C303.801,413.046 303.481,413.425 303.21,413.836C302.67,414.658 302.298,415.543 302.09,416.536C301.598,419.168 302.483,421.647 304.141,423.306C304.85,423.995 305.614,424.527 306.58,424.925C307.441,425.289 308.444,425.505 309.45,425.505C313.669,425.505 316.949,422.038 316.949,418.006C316.949,417.002 316.734,415.999 316.369,415.136Z" style="fill:white;fill-rule:nonzero;"/>
        </g>
    </g>
    <g>
        <g>
            <path d="M350.998,130.775L364.203,117.571C367.132,114.642 367.132,109.894 364.203,106.965C361.273,104.036 356.526,104.036 353.597,106.965L335.09,125.472C332.161,128.401 332.161,133.149 335.09,136.077L353.597,154.584C356.526,157.513 361.273,157.513 364.203,154.584C367.132,151.655 367.132,146.908 364.203,143.979L350.998,130.775Z" style="fill:white;fill-rule:nonzero;"/>
        </g>
    </g>
    <g>
        <g>
            <path d="M444.551,125.474L426.044,106.967C423.114,104.038 418.367,104.038 415.438,106.967C412.509,109.896 412.509,114.644 415.438,117.572L428.643,130.776L415.438,143.981C410.699,148.721 414.12,156.784 420.74,156.784C426.108,156.784 426.543,153.109 444.55,136.08C447.48,133.15 447.48,128.401 444.551,125.474Z" style="fill:white;fill-rule:nonzero;"/>
        </g>
    </g>
    <g>
        <g>
            <path d="M401.968,96.827C398.072,95.411 393.773,97.418 392.356,101.31L371.57,158.419C370.153,162.311 372.161,166.614 376.052,168.031C379.974,169.457 384.258,167.412 385.664,163.548L406.45,106.439C407.866,102.547 405.858,98.243 401.968,96.827Z" style="fill:white;fill-rule:nonzero;"/>
        </g>
    </g>
    <g>
        <g>
            <g>
                <path d="M136.693,294.043C136.707,294.055 136.706,294.054 136.693,294.043Z" style="fill:white;fill-rule:nonzero;"/>
                <path d="M492.136,221.82C231.459,222.662 240.804,219.727 232.541,224.217C226.146,227.692 222.172,234.368 222.172,241.642L222.172,252.247L201.649,239.767L201.649,234.487C228.75,220.306 246.532,193.021 246.532,160.221L246.532,160.107C250.425,159.277 254.099,157.8 257.406,155.707C257.669,155.572 257.926,155.421 258.176,155.252C266.145,149.886 270.205,141.921 270.396,134.09C270.314,133.781 271.414,123.742 262.311,114.945C268.259,86.959 266.258,64.758 256.316,48.929C246.751,33.699 232.543,28.628 224.924,26.962C223.946,26.748 223.094,26.239 222.525,25.529C201.391,-0.805 154.475,-7.765 113.39,9.343C109.566,10.935 107.758,15.325 109.349,19.149C110.942,22.973 115.333,24.778 119.155,23.19C153.728,8.794 193.996,13.944 210.824,34.919C213.532,38.294 217.4,40.672 221.716,41.617C227.037,42.782 236.958,46.317 243.613,56.909C250.915,68.536 252.562,85.448 248.554,107.245C245.806,106.483 239.883,105.531 237.13,106.165C234.407,106.494 222.594,107.248 214.463,96.936C209.663,90.85 201.033,89.611 194.817,94.117C178.137,106.205 130.721,125.07 89.737,107.061C88.351,106.216 87.085,105.986 85.74,105.967C85.611,105.969 85.716,105.95 85.109,105.981C81.788,106.028 78.56,106.518 75.495,107.432C69.844,82.94 73.752,58.09 91.95,40.65L91.953,40.647C94.943,37.781 95.042,33.036 92.176,30.045C89.31,27.055 84.561,26.956 81.571,29.822C58.085,52.339 53.345,84.722 62.01,115.294C46.513,130.793 55.386,155.445 78.405,160.164C78.756,168.2 79.37,175.347 80.401,179.704C83.517,192.858 89.582,204.752 98.434,215.064C105.443,223.213 113.624,229.813 122.632,234.688L122.632,239.702L88.356,259.923C88.255,259.951 57.316,268.516 59.296,267.974C42.096,272.611 30.318,284.843 26.984,301.536C26.966,301.628 26.949,301.721 26.934,301.813L0.558,465.763C-3.345,490.028 15.411,512 39.95,512L285.263,512C294.497,512 303.323,508.75 310.297,502.931C314.107,508.403 320.434,512 327.593,512L406.536,512C418.154,512 427.606,502.548 427.606,490.93C427.606,479.311 418.154,469.859 406.536,469.859L403.617,469.859L403.617,458.401L433.697,458.401C437.84,458.401 441.196,455.044 441.196,450.902C441.196,446.759 437.839,443.403 433.697,443.403L403.617,443.403L403.617,344.913C410.303,341.112 407.587,330.895 399.919,330.895L335.126,330.895C326.923,330.895 324.705,342.259 332.311,345.342L332.311,443.403C232.609,443.403 240.432,443.841 238.58,441.988C236.535,439.943 237.168,452.021 237.168,241.642C237.168,239.019 239.285,236.819 241.992,236.819C508.481,237.025 492.41,236.302 494.428,237.397C495.988,238.244 496.957,239.871 496.957,241.643L496.957,438.579C496.957,440.414 495.938,442.005 494.428,442.826C492.563,443.84 493.144,443.214 468.692,443.404C464.55,443.404 461.193,446.761 461.193,450.903C461.193,455.046 464.551,458.402 468.692,458.402C491.003,457.786 497.973,460.774 506.149,452.597C509.894,448.854 511.956,443.875 511.956,438.579L511.956,241.642C511.958,230.652 503.04,221.82 492.136,221.82ZM246.538,122.377C258.17,127.032 258.511,139.688 246.538,144.479L246.538,122.377ZM78.019,144.427C66.144,139.581 66.522,127.024 78.133,122.378C78.028,128.234 77.942,136.182 78.019,144.427ZM347.311,345.921L388.62,345.921L388.62,469.86L347.311,469.86L347.311,345.921ZM332.313,458.402L332.313,469.86C328.195,469.928 327.157,469.686 324.258,470.15C324.035,466.996 323.728,466.096 322.537,458.402L332.313,458.402ZM327.594,484.858L406.537,484.858C409.886,484.858 412.608,487.582 412.608,490.93C412.608,494.279 409.884,497.001 406.537,497.001L327.594,497.001C324.245,497.001 321.522,494.277 321.522,490.93C321.521,487.582 324.246,484.858 327.594,484.858ZM220.266,268.642L187.912,294.407C202.014,258.545 201.832,259.938 201.647,257.32L220.266,268.642ZM109.809,205.289C89.203,181.286 93.687,159.209 93.133,124.378C130.505,136.391 176.988,125.122 203.046,106.673C212.066,117.803 223.661,120.681 231.54,121.197C231.543,124.85 231.495,138.513 231.532,160.235C231.533,223.975 151.675,253.96 109.809,205.289ZM141.174,263.891L137.632,254.744L137.632,240.953C153.506,245.757 170.518,245.628 186.65,240.669L186.65,256.66L183.817,263.857C170.89,272.553 154.085,272.554 141.174,263.891ZM176.039,283.624C175.996,283.733 163.66,315.078 163.7,314.978C163.293,316.014 162.225,315.969 162.325,315.914C161.317,315.912 161.185,315.551 160.936,314.928C160.894,314.823 148.847,283.712 148.803,283.595C157.46,285.9 166.771,286.071 176.039,283.624ZM122.692,257.081C122.956,259.175 123.74,259.868 136.798,294.128C136.358,293.771 136.077,293.543 135.909,293.407C136.178,293.625 136.62,293.984 136.693,294.043C136.448,293.844 131.492,289.824 104.419,267.862L122.692,257.081ZM135.852,293.361C135.626,293.178 135.685,293.226 135.852,293.361ZM59.385,267.958C59.175,268.031 58.968,268.114 58.765,268.206C58.887,268.15 59.091,268.054 59.385,267.958ZM126.05,497.002L126.05,470.654C139.829,472.948 150.859,483.482 153.885,497.002L126.05,497.002ZM198.489,497.002L170.533,497.002C173.568,483.441 184.653,472.885 198.489,470.633L198.489,497.002ZM200.813,455.304C184.541,456.355 170.399,465.329 162.209,478.405C154.04,465.364 139.95,456.404 123.731,455.314C122.391,452.658 120.535,450.309 118.272,448.419C127.607,440.394 132.999,428.366 135.29,416.322L189.128,416.322C191.415,428.342 196.802,440.414 206.211,448.47C203.977,450.349 202.14,452.675 200.813,455.304ZM203.158,408.444C202.955,404.455 199.661,401.327 195.669,401.327L128.75,401.327C124.773,401.327 121.488,404.453 121.262,408.422C121.257,408.516 120.674,417.902 116.135,426.922C105.054,448.938 84.935,442.135 77.043,443.405L91.379,346.514C91.985,342.416 89.155,338.605 85.059,337.998C80.964,337.387 77.149,340.222 76.543,344.318L61.882,443.404L54.15,443.404C50.008,443.404 46.651,446.761 46.651,450.903C46.651,455.046 50.009,458.402 54.15,458.402L104.458,458.402C108.088,458.402 111.04,461.35 111.051,464.975L111.051,497.002L39.951,497.002C24.641,497 12.929,483.293 15.367,468.144L41.72,304.344C46.379,281.468 67.818,282.461 89.59,275.144C93.648,278.436 109.071,290.947 115.145,295.875L115.145,344.043C115.145,348.186 118.502,351.542 122.644,351.542C126.787,351.542 130.143,348.185 130.143,344.043L130.143,308.043L147.951,322.489C154.186,333.706 170.422,333.722 176.684,322.524L194.512,308.326L194.512,344.043C194.512,348.186 197.869,351.542 202.011,351.542C206.154,351.542 209.51,348.185 209.51,344.043L209.51,296.382L222.171,286.299C222.243,448.82 222.017,438.41 222.338,441.027C216.386,438.455 211.737,433.781 208.284,426.919C203.745,417.901 203.162,408.515 203.158,408.444ZM307.346,458.402L309.062,469.069C311.421,483.726 300.089,497.003 285.264,497.003L213.49,497.003L213.49,464.976C213.501,461.349 216.454,458.403 220.083,458.403C228.881,458.402 292.799,458.402 307.346,458.402Z" style="fill:white;fill-rule:nonzero;"/>
            </g>
        </g>
    </g>
    <g>
        <g>
            <path d="M483.742,143.427C479.599,143.427 476.243,146.785 476.243,150.926L476.243,191.683C468.991,186.103 464.215,177.42 452.555,177.42L311.557,177.42C309.118,177.42 307.057,175.359 307.057,172.92L307.057,91.935C307.057,89.496 309.118,87.435 311.557,87.435L471.742,87.435C474.181,87.435 476.242,89.496 476.242,91.935L476.242,115.929C476.242,120.071 479.599,123.428 483.741,123.428C487.883,123.428 491.24,120.07 491.24,115.929L491.24,91.935C491.24,81.184 482.493,72.437 471.742,72.437L311.557,72.437C300.806,72.437 292.059,81.184 292.059,91.935L292.059,172.921C292.059,183.672 300.806,192.419 311.557,192.419L452.554,192.419C456.275,192.419 457.028,195.044 468.062,204.516C477.007,212.642 491.24,206.232 491.24,194.259L491.24,150.926C491.241,146.784 487.884,143.427 483.742,143.427Z" style="fill:white;fill-rule:nonzero;"/>
        </g>
    </g>
</svg>
