<?xml version="1.0" encoding="UTF-8" standalone="no"?>
<!DOCTYPE svg PUBLIC "-//W3C//DTD SVG 1.1//EN" "http://www.w3.org/Graphics/SVG/1.1/DTD/svg11.dtd">
<svg width="100%" height="100%" viewBox="0 0 512 512" version="1.1" xmlns="http://www.w3.org/2000/svg" xmlns:xlink="http://www.w3.org/1999/xlink" xml:space="preserve" xmlns:serif="http://www.serif.com/" style="fill-rule:evenodd;clip-rule:evenodd;stroke-linejoin:round;stroke-miterlimit:2;">
    <g>
        <path d="M307.393,300.861C328.592,288.478 344.957,268.686 352.907,245.059C353.259,245.068 353.611,245.086 353.963,245.086C375.517,245.086 393.053,227.55 393.053,205.996C393.053,185.878 377.774,169.266 358.212,167.141L358.212,150.19C365.384,142.967 382.849,120.778 379.302,78.638C377.864,61.548 371.553,48.226 360.543,39.041C346.429,27.266 328.673,26.012 321.116,26.03C311.795,17.32 278.186,-9.751 232.751,3.667C223.965,6.263 215.563,9.654 207.068,14.035C203.379,15.938 201.931,20.469 203.833,24.157C205.736,27.845 210.267,29.294 213.955,27.392C221.599,23.45 229.14,20.403 237.007,18.08C280.544,5.219 311.373,37.412 312.651,38.776C314.234,40.48 316.544,41.353 318.855,41.146C319.041,41.127 337.828,39.587 351.004,50.657C358.759,57.172 363.241,67.011 364.325,79.9C367.046,112.235 355.851,130.08 349.762,137.239C334.779,125.603 321.232,101.491 321.085,101.226C318.463,96.083 310.382,96.171 307.864,101.389C296.872,122.354 276.673,130.681 265.121,133.838C263.881,117.77 253.635,105.021 253.107,104.375C250.326,100.795 244.468,100.716 241.598,104.219C209.939,140.912 168.625,140.957 164.026,140.85C163.1,140.827 162.172,140.674 161.268,140.398C148.192,136.395 135.233,124.902 126.767,116.103C154.835,111.266 165.135,91.866 165.627,90.907C168.316,86.056 164.234,79.622 158.715,79.967C146.533,80.344 137.913,75.85 132.383,66.253C130.998,63.85 129.98,61.401 129.235,59.165C156.182,60.497 172.704,52.081 188.47,42.502C192.017,40.347 193.145,35.725 190.99,32.179C188.836,28.632 184.214,27.504 180.667,29.659C164.753,39.329 149.26,47.031 120.741,43.311C116.198,42.603 111.854,46.681 112.272,51.259C112.302,51.714 113.08,62.529 119.049,73.202C123.325,80.85 130.826,89.506 143.671,93.195C135.203,99.522 124.342,102.528 111.357,102.124C105.232,101.737 101.269,109.435 105.15,114.191C106.116,115.459 128.272,144.207 153.788,153.71L153.788,167.143C134.226,169.268 118.947,185.88 118.947,205.998C118.947,227.552 136.483,245.088 158.037,245.088C158.389,245.088 158.741,245.07 159.093,245.061C167.042,268.688 183.407,288.48 204.607,300.863C144.034,309.079 97.192,361.127 97.192,423.917L97.192,439.527C97.192,443.677 100.556,447.041 104.706,447.041C108.856,447.041 112.22,443.677 112.22,439.527L112.22,423.917C112.22,394.617 123.826,367.979 142.678,348.351L239.318,454.688C247.798,464.435 264.203,464.435 272.682,454.688L304.267,419.934C307.058,416.863 306.831,412.111 303.76,409.32C300.69,406.528 295.937,406.756 293.146,409.827L261.561,444.581C258.739,447.84 253.261,447.84 250.44,444.581L153.804,338.248C158.179,334.789 162.825,331.661 167.703,328.895L250.441,419.935C253.267,423.186 258.737,423.185 261.562,419.935L344.3,328.895C349.178,331.662 353.824,334.79 358.199,338.248L313.372,387.574C310.581,390.645 310.808,395.397 313.879,398.188C316.941,400.973 321.696,400.759 324.493,397.681L369.323,348.352C388.176,367.98 399.781,394.618 399.781,423.918L399.781,496.975L355.04,496.975L355.04,438.342C355.04,434.192 351.676,430.828 347.526,430.828C343.376,430.828 340.012,434.192 340.012,438.342L340.012,496.975L171.989,496.975L171.989,438.342C171.989,434.192 168.625,430.828 164.475,430.828C160.325,430.828 156.961,434.192 156.961,438.342L156.961,496.975L112.22,496.975L112.22,469.584C112.22,465.434 108.856,462.07 104.706,462.07C100.556,462.07 97.192,465.434 97.192,469.584L97.192,504.489C97.192,508.639 100.556,512.003 104.706,512.003L407.295,512.003C411.445,512.003 414.809,508.639 414.809,504.489L414.809,423.918C414.808,361.125 367.966,309.077 307.393,300.861ZM267.546,333.641L244.454,333.641L240.19,314.752L271.81,314.752L267.546,333.641ZM378.024,205.996C378.024,218.327 368.699,228.516 356.731,229.894C357.7,224.252 358.211,218.456 358.211,212.541L358.211,182.317C369.459,184.331 378.024,194.178 378.024,205.996ZM133.976,205.996C133.976,194.179 142.542,184.331 153.789,182.317L153.789,212.541C153.789,218.455 154.3,224.252 155.269,229.894C143.301,228.515 133.976,218.327 133.976,205.996ZM168.816,212.541L168.816,155.772C182.144,155.085 216.675,150.391 246.104,121.383C248.762,126.699 251.29,134.172 249.756,141.597C249.274,143.931 249.928,146.356 251.519,148.132C253.11,149.907 255.449,150.815 257.822,150.598C259.41,150.448 293.205,146.918 314.419,119.004C320.857,128.707 331.441,142.794 343.183,151.011L343.183,212.541C343.183,260.614 304.072,299.724 255.999,299.724C207.926,299.724 168.816,260.614 168.816,212.541ZM221.382,314.752L224.783,314.752L230.779,341.314L225.515,370.164L181.88,322.151C194.137,317.377 207.458,314.752 221.382,314.752ZM256,403.706L238.239,384.162L244.715,348.668L267.286,348.668L273.762,384.162L256,403.706ZM286.484,370.164L281.22,341.314L287.216,314.752L290.617,314.752C304.541,314.752 317.862,317.377 330.118,322.151L286.484,370.164Z" style="fill:white;fill-rule:nonzero;"/>
        <path d="M256,260.779C282.662,260.779 290.723,242.042 291.074,241.191C291.075,241.189 291.076,241.187 291.077,241.185C293.201,236.412 289.425,230.653 284.164,230.771C281.039,230.771 278.362,232.684 277.235,235.402C276.856,236.205 271.988,245.779 256,245.779C240.017,245.779 235.147,236.209 234.765,235.402C233.638,232.684 230.961,230.771 227.836,230.771C222.575,230.653 218.8,236.413 220.924,241.185C220.925,241.186 220.926,241.189 220.927,241.191C221.277,242.042 229.338,260.779 256,260.779Z" style="fill:white;fill-rule:nonzero;"/>
        <path d="M210.199,176.049C206.057,176.049 202.699,179.407 202.699,183.549L202.699,204.739C202.699,208.881 206.057,212.239 210.199,212.239C214.341,212.239 217.699,208.881 217.699,204.739L217.699,183.549C217.699,179.407 214.341,176.049 210.199,176.049Z" style="fill:white;fill-rule:nonzero;"/>
        <path d="M301.801,212.24C305.943,212.24 309.301,208.882 309.301,204.74L309.301,183.55C309.301,179.408 305.943,176.05 301.801,176.05C297.659,176.05 294.301,179.408 294.301,183.55L294.301,204.74C294.301,208.882 297.659,212.24 301.801,212.24Z" style="fill:white;fill-rule:nonzero;"/>
    </g>
</svg>
