<?xml version="1.0" encoding="UTF-8" standalone="no"?>
<!DOCTYPE svg PUBLIC "-//W3C//DTD SVG 1.1//EN" "http://www.w3.org/Graphics/SVG/1.1/DTD/svg11.dtd">
<svg width="100%" height="100%" viewBox="0 0 513 513" version="1.1" xmlns="http://www.w3.org/2000/svg" xmlns:xlink="http://www.w3.org/1999/xlink" xml:space="preserve" xmlns:serif="http://www.serif.com/" style="fill-rule:evenodd;clip-rule:evenodd;stroke-linejoin:round;stroke-miterlimit:2;">
    <g>
        <g>
            <path d="M130.773,281.991L113.422,278.783C111.949,278.511 110.573,277.38 109.997,276.007C123.408,267.411 132.322,252.385 132.322,235.306L132.322,209.805C132.322,183.16 110.645,161.484 84.001,161.484C57.357,161.484 35.68,183.161 35.68,209.805L35.68,235.306C35.68,252.381 44.59,267.405 57.997,276.002C57.731,276.638 57.332,277.206 56.824,277.664C56.451,277.879 56.087,278.117 55.736,278.385C55.37,278.562 54.986,278.708 54.571,278.785L37.228,281.991C15.656,285.978 0,304.793 0,326.73L0,340.52C0,346.042 4.477,350.52 10,350.52L158,350.52C163.523,350.52 168,346.042 168,340.52L168,326.73C168,304.793 152.343,285.978 130.773,281.991ZM84,181.482C96.421,181.482 107,189.519 110.81,200.667L101.752,195.345C97.539,192.871 92.158,193.801 89.022,197.544C82.906,204.842 73.937,209.028 64.416,209.028L55.69,209.028C56.102,193.77 68.643,181.482 84,181.482ZM55.679,235.304L55.679,229.028L64.415,229.028C76.969,229.028 88.93,224.545 98.299,216.512L112.321,224.751L112.321,235.304C112.321,250.921 99.616,263.626 84,263.626C68.384,263.626 55.679,250.921 55.679,235.304ZM93.057,286.745L84.003,298.043L74.939,286.737C75.627,285.573 76.216,284.349 76.706,283.076C79.085,283.438 81.521,283.627 84,283.627C86.476,283.627 88.908,283.438 91.285,283.077C91.777,284.352 92.368,285.579 93.057,286.745ZM20,330.52L20,326.73C20,314.437 28.774,303.891 40.862,301.656L58.206,298.45C58.346,298.424 58.479,298.383 58.618,298.355L76.202,320.288C78.1,322.656 80.971,324.033 84.005,324.033C87.039,324.033 89.91,322.654 91.807,320.287L109.382,298.356C109.518,298.384 109.648,298.424 109.785,298.449L127.136,301.657C139.225,303.892 147.999,314.437 147.999,326.731L147.999,330.52L20,330.52Z" style="fill:white;fill-rule:nonzero;"/>
        </g>
    </g>
    <g>
        <g>
            <g>
                <path d="M230.123,114.52C216.716,105.923 229.857,115.155 230.123,114.52Z" style="fill:white;fill-rule:nonzero;"/>
                <path d="M302.899,120.508L285.548,117.3C284.074,117.027 282.699,115.898 282.123,114.524C295.534,105.928 304.448,90.902 304.448,73.824L304.448,48.322C304.448,21.678 282.771,0.001 256.127,0.001C229.483,0.001 207.806,21.678 207.806,48.322L207.806,73.824C207.806,90.899 216.716,105.923 230.123,114.52C229.546,115.901 228.174,117.027 226.696,117.301L209.353,120.508C187.783,124.496 172.127,143.313 172.127,165.249L172.127,179.039C172.127,184.562 176.604,189.039 182.127,189.039L330.127,189.039C335.65,189.039 340.127,184.562 340.127,179.039L340.127,165.249C340.127,143.313 324.471,124.496 302.899,120.508ZM256.127,20.001C268.548,20.001 279.127,28.038 282.937,39.186L273.879,33.864C269.667,31.39 264.285,32.319 261.149,36.063C255.033,43.361 246.064,47.547 236.543,47.547L227.817,47.547C228.229,32.288 240.77,20.001 256.127,20.001ZM227.806,73.824L227.806,67.547L236.542,67.547C249.096,67.547 261.057,63.064 270.426,55.031L284.448,63.27L284.448,73.824C284.448,89.439 271.743,102.145 256.127,102.145C240.511,102.146 227.806,89.441 227.806,73.824ZM265.184,125.264L256.13,136.562L247.066,125.256C247.754,124.092 248.343,122.867 248.834,121.595C251.213,121.957 253.649,122.146 256.127,122.146C258.603,122.146 261.035,121.957 263.412,121.596C263.904,122.871 264.495,124.098 265.184,125.264ZM320.127,169.038L192.127,169.038L192.127,165.248C192.127,152.954 200.901,142.409 212.99,140.174L230.332,136.967C230.472,136.941 230.606,136.9 230.745,136.872L248.329,158.806C250.227,161.174 253.098,162.552 256.132,162.551C259.166,162.55 262.037,161.173 263.935,158.804L281.509,136.874C281.645,136.901 281.776,136.942 281.913,136.967L299.264,140.175C311.353,142.409 320.127,152.955 320.127,165.248L320.127,169.038Z" style="fill:white;fill-rule:nonzero;"/>
            </g>
        </g>
    </g>
    <g>
        <g>
            <path d="M302.9,443.472L285.549,440.264C284.076,439.992 282.7,438.862 282.124,437.488C295.535,428.892 304.449,413.866 304.449,396.788L304.449,371.286C304.449,344.641 282.772,322.965 256.128,322.965C229.484,322.965 207.807,344.642 207.807,371.286L207.807,396.788C207.807,413.863 216.717,428.887 230.124,437.484C229.546,438.866 228.176,439.991 226.697,440.265L209.354,443.472C187.784,447.46 172.128,466.277 172.128,488.212L172.128,502.001C172.128,507.523 176.605,512.001 182.128,512.001L330.128,512.001C335.651,512.001 340.128,507.523 340.128,502.001L340.128,488.212C340.127,466.275 324.47,447.459 302.9,443.472ZM256.127,342.964C268.548,342.964 279.127,351.001 282.937,362.149L273.879,356.828C269.667,354.352 264.285,355.284 261.149,359.027C255.033,366.325 246.064,370.51 236.543,370.51L227.817,370.51C228.229,355.249 240.77,342.964 256.127,342.964ZM227.806,396.787L227.806,390.51L236.542,390.51C249.096,390.51 261.057,386.028 270.425,377.994L284.448,386.233L284.448,396.787C284.448,412.403 271.743,425.108 256.127,425.108C240.511,425.108 227.806,412.402 227.806,396.787ZM265.184,448.227L256.13,459.525L247.066,448.219C247.754,447.055 248.343,445.83 248.834,444.558C251.213,444.92 253.649,445.109 256.127,445.109C258.603,445.109 261.035,444.92 263.412,444.559C263.904,445.834 264.495,447.061 265.184,448.227ZM320.127,492.001L192.127,492.001L192.127,488.211C192.127,475.918 200.901,465.372 212.99,463.137L230.332,459.93C230.472,459.904 230.605,459.863 230.745,459.835L248.33,481.769C250.228,484.137 253.099,485.514 256.133,485.514C259.167,485.514 262.038,484.135 263.935,481.768L281.51,459.837C281.646,459.865 281.776,459.905 281.913,459.93L299.264,463.138C311.353,465.373 320.127,475.918 320.127,488.212L320.127,492.001Z" style="fill:white;fill-rule:nonzero;"/>
        </g>
    </g>
    <g>
        <g>
            <path d="M474.773,281.99L457.422,278.782C455.949,278.51 454.573,277.379 453.997,276.006C467.408,267.41 476.322,252.384 476.322,235.305L476.322,209.804C476.322,183.159 454.645,161.483 428.001,161.483C401.357,161.483 379.68,183.16 379.68,209.804L379.68,235.305C379.68,252.38 388.59,267.404 401.997,276.001C401.42,277.382 400.049,278.509 398.57,278.783L381.227,281.989C359.657,285.977 344.001,304.794 344.001,326.729L344.001,340.519C344.001,346.041 348.478,350.519 354.001,350.519L502.001,350.519C507.524,350.519 512.001,346.041 512.001,340.519L512.001,326.73C512,304.793 496.343,285.978 474.773,281.99ZM428,181.482C440.421,181.482 451,189.519 454.81,200.667L445.752,195.345C441.54,192.871 436.158,193.801 433.022,197.544C426.906,204.842 417.937,209.028 408.416,209.028L399.69,209.028C400.102,193.77 412.643,181.482 428,181.482ZM399.679,235.304L399.679,229.028L408.415,229.028C420.969,229.028 432.93,224.545 442.299,216.512L456.321,224.751L456.321,235.304C456.321,250.921 443.616,263.626 428,263.626C412.384,263.626 399.679,250.921 399.679,235.304ZM437.057,286.745L428.003,298.043L418.939,286.737C419.627,285.573 420.216,284.349 420.706,283.076C423.085,283.438 425.521,283.627 428,283.627C430.476,283.627 432.908,283.438 435.285,283.077C435.777,284.352 436.368,285.579 437.057,286.745ZM364,330.52L364,326.73C364,314.437 372.774,303.891 384.862,301.656L402.206,298.45C402.346,298.424 402.479,298.383 402.618,298.355L420.202,320.288C422.1,322.656 424.971,324.033 428.005,324.033C431.039,324.033 433.91,322.654 435.807,320.287L453.382,298.356C453.518,298.384 453.648,298.424 453.785,298.449L471.136,301.657C483.225,303.892 491.999,314.437 491.999,326.731L491.999,330.52L364,330.52Z" style="fill:white;fill-rule:nonzero;"/>
        </g>
    </g>
    <g>
        <g>
            <path d="M414.358,365.056C409.981,361.688 403.702,362.507 400.335,366.885L400.103,367.185C396.712,371.544 397.498,377.828 401.857,381.218C403.682,382.638 405.843,383.324 407.989,383.324C410.969,383.324 413.918,381.998 415.889,379.464L416.187,379.078C419.554,374.701 418.735,368.423 414.358,365.056Z" style="fill:white;fill-rule:nonzero;"/>
        </g>
    </g>
    <g>
        <g>
            <path d="M391.669,392.224C387.98,388.116 381.657,387.775 377.548,391.466C364.566,403.123 350.029,412.833 334.344,420.325C329.361,422.705 327.25,428.675 329.631,433.659C331.347,437.252 334.929,439.35 338.661,439.35C340.106,439.35 341.574,439.036 342.964,438.371C360.374,430.056 376.505,419.28 390.91,406.346C395.019,402.657 395.359,396.333 391.669,392.224Z" style="fill:white;fill-rule:nonzero;"/>
        </g>
    </g>
    <g>
        <g>
            <path d="M177.101,420.058C150.039,407.019 126.373,387.243 108.661,362.866C105.415,358.399 99.162,357.407 94.693,360.654C90.225,363.9 89.235,370.154 92.482,374.622C112.131,401.665 138.391,423.607 168.42,438.076C169.819,438.75 171.298,439.069 172.753,439.069C176.474,439.069 180.046,436.984 181.769,433.408C184.166,428.431 182.076,422.456 177.101,420.058Z" style="fill:white;fill-rule:nonzero;"/>
        </g>
    </g>
    <g>
        <g>
            <path d="M112.537,128.027C108.718,124.95 102.381,124.715 98.384,129.651C94.388,134.585 95.936,140.736 99.742,143.831C101.489,145.252 103.768,146.075 106.113,146.075C108.876,146.075 111.728,144.93 113.902,142.27C113.921,142.247 113.94,142.224 113.958,142.201C117.932,137.247 116.355,131.104 112.537,128.027Z" style="fill:white;fill-rule:nonzero;"/>
        </g>
    </g>
    <g>
        <g>
            <path d="M188.612,75.879C186.408,70.815 180.513,68.495 175.452,70.701C158.493,78.082 142.606,87.783 128.234,99.531C123.958,103.026 123.325,109.326 126.821,113.602C128.799,116.022 131.673,117.274 134.57,117.274C136.796,117.274 139.035,116.534 140.893,115.016C153.845,104.429 168.158,95.689 183.434,89.039C188.498,86.835 190.816,80.943 188.612,75.879Z" style="fill:white;fill-rule:nonzero;"/>
        </g>
    </g>
    <g>
        <g>
            <path d="M421.279,139.84C398.175,107.023 366.258,82.04 328.982,67.59C323.831,65.594 318.04,68.151 316.044,73.3C314.047,78.45 316.604,84.243 321.753,86.239C355.339,99.257 384.099,121.774 404.925,151.354C406.872,154.12 409.967,155.598 413.111,155.598C415.1,155.598 417.109,155.006 418.859,153.774C423.375,150.595 424.458,144.356 421.279,139.84Z" style="fill:white;fill-rule:nonzero;"/>
        </g>
    </g>
</svg>
